<svg id="d81fee47-5959-405c-9ee4-cb6d818609ef" data-name="Layer 1" xmlns="http://www.w3.org/2000/svg" viewBox="0 0 358.3 52.8">
  <title>Artboard 1</title>
  <g>
    <path d="M145.5,36.3a2.3,2.3,0,0,0-2.3,2.3,2.3,2.3,0,0,0,2.3,2.4,2.4,2.4,0,0,0,2.4-2.4A2.3,2.3,0,0,0,145.5,36.3Z" style="fill: #ffc857"/>
    <path d="M153.1,36.3a2.3,2.3,0,0,0-2.4,2.3,2.4,2.4,0,0,0,2.4,2.4,2.3,2.3,0,0,0,2.3-2.4A2.3,2.3,0,0,0,153.1,36.3Z" style="fill: #ffc857"/>
    <path d="M166.3,21.6h-.9v.3a12.2,12.2,0,0,0-11.7-9.3h-2.8a5.8,5.8,0,0,1,5.6-5.2,1.5,1.5,0,0,0,1.2-.7h2a.8.8,0,0,0,.7-.8.8.8,0,0,0-.7-.7h-2a1.3,1.3,0,0,0-1.2-.8,8.5,8.5,0,0,0-6.1,2.7C149.9,4.5,149,2,147.1,2a1.4,1.4,0,0,0-1.1.5h-1.1a.8.8,0,0,0-.7.8.7.7,0,0,0,.7.7h.9a1.4,1.4,0,0,0,.9.9,7.9,7.9,0,0,1,.8,2.7,5.9,5.9,0,0,0-2.6-.7,1.4,1.4,0,0,0-1.3.8,4.1,4.1,0,0,0-2.2.8,1.2,1.2,0,0,0-.4.8.7.7,0,0,0,.7.7h0a.8.8,0,0,0,.7-.5l1.3-.3a1.7,1.7,0,0,0,1.2.6,3.2,3.2,0,0,1,3,2.9h-3a12.1,12.1,0,0,0-11.7,9.3v-.3h-.8a6,6,0,0,0-6,6v3.1a6.2,6.2,0,0,0,3.3,5.4,9.4,9.4,0,0,0-1.5,5.3,10.3,10.3,0,0,0,10.3,10.3h21.6A10.4,10.4,0,0,0,169,36.1a6.2,6.2,0,0,0,3.3-5.4V27.6A6,6,0,0,0,166.3,21.6Zm0,2.9a3.1,3.1,0,0,1,2.3,1,6.4,6.4,0,0,0-.9,3.7,6.4,6.4,0,0,0,.9,3.7,3.8,3.8,0,0,1-1.5.9,6.1,6.1,0,0,0-1.6-1.2h.3v-8a4.3,4.3,0,0,0-.1-.5.4.4,0,0,0,.1.3Zm-.6-1.3a.9.9,0,0,1-.1-.5A.9.9,0,0,0,165.7,23.2Zm-26.8-4.6a8.4,8.4,0,0,1,6-2.5h8.8a8.4,8.4,0,0,1,6,2.5,7.9,7.9,0,0,1,1.2,1.5,11.6,11.6,0,0,0-6.4-2H144.1a11.4,11.4,0,0,0-6.5,2.1A10.1,10.1,0,0,1,138.9,18.6Zm-2.5,9a7.5,7.5,0,0,1,2.1-3.9,8,8,0,0,1,5.6-2.4h10.4a8,8,0,0,1,5.6,2.4,6.8,6.8,0,0,1,2.1,3.8v3.7h.4a10.7,10.7,0,0,0-2.5-.3H158a5.2,5.2,0,0,0,1-3.1c0-2.4-1.5-4.4-3.2-4.4s-3.2,2-3.2,4.4a5.2,5.2,0,0,0,1,3.1h-8.2a5.2,5.2,0,0,0,1-3.1c0-2.4-1.4-4.4-3.2-4.4s-3.2,2-3.2,4.4a5.2,5.2,0,0,0,1,3.1h-2.5a10.7,10.7,0,0,0-2.5.3h.4Zm28.5,4.6h0Zm-34.8-6.7a2.9,2.9,0,0,1,2.3-1h.4c0-.1.1-.2.1-.3a4.3,4.3,0,0,0-.1.5v8h.3a8.3,8.3,0,0,0-1.5,1.1,3.2,3.2,0,0,1-1.6-.9c.6-.5,1-2,1-3.7A6,6,0,0,0,130.1,25.5Zm2.9-2.8a.9.9,0,0,1-.1.5A.9.9,0,0,0,133,22.7Zm.9,9.4h0Zm26.2,16H138.5a6.8,6.8,0,1,1,0-13.5h21.6a6.8,6.8,0,1,1,0,13.5Z" style="fill: #ffc857"/>
  </g>
  <g>
    <g>
      <path d="M25.1,46.8a3.8,3.8,0,0,1-2.2-.6,5.4,5.4,0,0,1-1.5-1.5l-1.3-2.2-2.4-3.9a15.8,15.8,0,0,0-2.2-3.2,6.1,6.1,0,0,0-1.6-1.3,7.1,7.1,0,0,0-2.3-.3h-1v8.4a5,5,0,0,1-1.1,3.4,3.8,3.8,0,0,1-2.9,1.2,3.5,3.5,0,0,1-2.9-1.3,4.9,4.9,0,0,1-1.1-3.3V19.7a4.8,4.8,0,0,1,1.2-3.5,5.1,5.1,0,0,1,3.5-1.1h9.6a17.8,17.8,0,0,1,3.5.2,8.8,8.8,0,0,1,2.9.7A8.3,8.3,0,0,1,26,17.9a8.4,8.4,0,0,1,1.8,2.8,9.7,9.7,0,0,1,.6,3.4A8.4,8.4,0,0,1,26.3,30a9.5,9.5,0,0,1-4,2.5l1.5,1.4a21.8,21.8,0,0,1,2.6,3.6c.8,1.3,1.4,2.5,1.9,3.5a7.4,7.4,0,0,1,.7,2.4,2.7,2.7,0,0,1-.6,1.7,4,4,0,0,1-1.3,1.3A6.5,6.5,0,0,1,25.1,46.8ZM14.9,27.6a14.9,14.9,0,0,0,3.3-.4,3,3,0,0,0,1.7-.9,2.4,2.4,0,0,0,.5-1.8,2.9,2.9,0,0,0-.4-1.6,2.2,2.2,0,0,0-1.3-1c-.3-.2-1.2-.4-3.7-.4H10.6v6.1Z" style="fill: #fc6"/>
      <path d="M16.9,16.1h3.4l2.6.7a8.1,8.1,0,0,1,2.4,1.7,7.2,7.2,0,0,1,1.6,2.5,7.3,7.3,0,0,1,.5,3,7.3,7.3,0,0,1-1.8,5.2A10.2,10.2,0,0,1,20,32.1a10,10,0,0,1,3,2.5,22.7,22.7,0,0,1,2.6,3.5,26.2,26.2,0,0,1,1.7,3.3,5.7,5.7,0,0,1,.7,2,2.8,2.8,0,0,1-.4,1.2c-.2.4-.6.6-1,.9a3.4,3.4,0,0,1-3.2-.2,4.3,4.3,0,0,1-1.1-1.2A13.5,13.5,0,0,1,21,42l-2.4-3.9a18.1,18.1,0,0,0-2.3-3.3,6.6,6.6,0,0,0-2-1.6,7,7,0,0,0-2.7-.4h-2v9.4a4.1,4.1,0,0,1-.8,2.7,2.9,2.9,0,0,1-2.2.9,2.8,2.8,0,0,1-2.2-.9,4.1,4.1,0,0,1-.8-2.7V19.7a3.8,3.8,0,0,1,.9-2.8,4.3,4.3,0,0,1,2.8-.8h9.6M9.6,28.6h5.3a17.9,17.9,0,0,0,3.6-.4,4.8,4.8,0,0,0,2.2-1.3,3.6,3.6,0,0,0,.7-2.4,4.3,4.3,0,0,0-.6-2.2A3.7,3.7,0,0,0,19.1,21a11.5,11.5,0,0,0-4.1-.5H9.6v8.1m7.3-14.5H7.3a5.9,5.9,0,0,0-4.2,1.4,5.7,5.7,0,0,0-1.5,4.2V42.2a6.2,6.2,0,0,0,1.3,4,4.8,4.8,0,0,0,3.7,1.6,4.8,4.8,0,0,0,3.6-1.5,6,6,0,0,0,1.4-4.1V34.8h0a5.6,5.6,0,0,1,1.9.3,3.5,3.5,0,0,1,1.3,1,24.5,24.5,0,0,1,2.1,3l2.3,4,1.4,2.2A13.7,13.7,0,0,0,22.3,47a5.1,5.1,0,0,0,2.8.8,4.8,4.8,0,0,0,2.4-.6,5.2,5.2,0,0,0,1.8-1.5,4.8,4.8,0,0,0,.7-2.3,8.7,8.7,0,0,0-.8-2.8A32,32,0,0,0,27.3,37a20,20,0,0,0-2.8-3.7l-.4-.5a11.4,11.4,0,0,0,3-2.1,9.6,9.6,0,0,0,2.3-6.6,11,11,0,0,0-.6-3.7,9.9,9.9,0,0,0-2.1-3.2,10.2,10.2,0,0,0-3-2.1,10.7,10.7,0,0,0-3.2-.8,19.4,19.4,0,0,0-3.6-.2Zm-5.3,8.4H15a10.3,10.3,0,0,1,3.3.3,2.2,2.2,0,0,1,.9.7,1.5,1.5,0,0,1,.2,1c0,.4,0,.9-.2,1.1a2.3,2.3,0,0,1-1.2.6,9.3,9.3,0,0,1-3.1.4H11.6V22.5Z" style="fill: #fc6"/>
    </g>
    <g>
      <path d="M46,46.8a16.7,16.7,0,0,1-6.5-1.2,13.1,13.1,0,0,1-4.9-3.4A12.6,12.6,0,0,1,31.7,37a18.7,18.7,0,0,1-1-6.4,19.7,19.7,0,0,1,1-6.5,14.4,14.4,0,0,1,3-5.1,11.8,11.8,0,0,1,4.9-3.3,17.7,17.7,0,0,1,6.3-1.1,15.7,15.7,0,0,1,8.3,2,13,13,0,0,1,5.3,5.6,18.9,18.9,0,0,1,1.8,8.4,21.7,21.7,0,0,1-.9,6.5,15.8,15.8,0,0,1-3,5.2,12.9,12.9,0,0,1-4.9,3.3A16.7,16.7,0,0,1,46,46.8Zm-.1-25.5a7.2,7.2,0,0,0-2.9.6,5.7,5.7,0,0,0-2.2,1.6,10.5,10.5,0,0,0-1.5,3,13.1,13.1,0,0,0-.6,4.1,13.3,13.3,0,0,0,.6,4.2,8.6,8.6,0,0,0,1.6,3,6,6,0,0,0,2.2,1.7,6.8,6.8,0,0,0,2.9.6,7.1,7.1,0,0,0,3.7-1A8.1,8.1,0,0,0,52.3,36a12.1,12.1,0,0,0,1-5.4,12.9,12.9,0,0,0-.9-5.1,7,7,0,0,0-2.6-3.2A7.1,7.1,0,0,0,45.9,21.3Z" style="fill: #fc6"/>
      <path d="M45.9,15.6a16.1,16.1,0,0,1,7.8,1.8,12,12,0,0,1,4.9,5.3,16.4,16.4,0,0,1,1.7,7.9,19.7,19.7,0,0,1-.9,6.2,12.5,12.5,0,0,1-2.7,4.8,12.1,12.1,0,0,1-4.6,3.1A16.2,16.2,0,0,1,46,45.8a16.6,16.6,0,0,1-6.1-1.1,12.1,12.1,0,0,1-4.5-3.1,13.9,13.9,0,0,1-2.8-4.9,20,20,0,0,1-.9-6.1,17.9,17.9,0,0,1,1-6.2,12.9,12.9,0,0,1,2.8-4.8,12.3,12.3,0,0,1,4.4-3,16.4,16.4,0,0,1,6-1M46,41.1A8.8,8.8,0,0,0,50.2,40a9.1,9.1,0,0,0,3-3.6,13.9,13.9,0,0,0,1.1-5.8,14,14,0,0,0-1-5.6,7.9,7.9,0,0,0-3-3.5,8.1,8.1,0,0,0-4.4-1.2,7.2,7.2,0,0,0-3.3.7A6.7,6.7,0,0,0,40,22.9a8.5,8.5,0,0,0-1.7,3.3,15.1,15.1,0,0,0-.6,4.4,15.3,15.3,0,0,0,.6,4.5,8.5,8.5,0,0,0,1.8,3.4,7.9,7.9,0,0,0,2.6,1.9,7.2,7.2,0,0,0,3.3.7m-.1-27.5a17.8,17.8,0,0,0-6.7,1.2A14.5,14.5,0,0,0,34,18.3a14.3,14.3,0,0,0-3.2,5.5,21.5,21.5,0,0,0-1.1,6.8,21.5,21.5,0,0,0,1,6.8,15,15,0,0,0,3.2,5.5,13.5,13.5,0,0,0,5.2,3.6A17.3,17.3,0,0,0,46,47.8a18.5,18.5,0,0,0,6.9-1.2A15.1,15.1,0,0,0,58.1,43a16.4,16.4,0,0,0,3.2-5.6,20.7,20.7,0,0,0,1-6.8,19,19,0,0,0-1.9-8.8,14,14,0,0,0-5.7-6.1,17.6,17.6,0,0,0-8.8-2.1ZM46,39.1a7,7,0,0,1-2.5-.5,5.3,5.3,0,0,1-1.9-1.5,7.1,7.1,0,0,1-1.4-2.6,14.8,14.8,0,0,1-.5-3.9,14.6,14.6,0,0,1,.5-3.8,7.1,7.1,0,0,1,1.4-2.6,4.9,4.9,0,0,1,1.8-1.4,5.3,5.3,0,0,1,2.5-.5,6.4,6.4,0,0,1,3.4.9,6.1,6.1,0,0,1,2.2,2.7,13.2,13.2,0,0,1,.8,4.7,12.1,12.1,0,0,1-.9,5,5.4,5.4,0,0,1-2.3,2.6,5.6,5.6,0,0,1-3.1.9Z" style="fill: #fc6"/>
    </g>
    <g>
      <path d="M68.9,46.3a4.8,4.8,0,0,1-3.5-1.2,4.8,4.8,0,0,1-1.1-3.4v-22a4.6,4.6,0,0,1,1.2-3.5,4.8,4.8,0,0,1,3.4-1.1h9.5a21.7,21.7,0,0,1,3.8.3,6.8,6.8,0,0,1,3.1,1.1,6,6,0,0,1,2.1,1.8,10.9,10.9,0,0,1,1.4,2.3,8.6,8.6,0,0,1,.4,2.8,7.3,7.3,0,0,1-3.1,6.3A7.7,7.7,0,0,1,90.6,37a9.1,9.1,0,0,1-1.4,4.9,8.1,8.1,0,0,1-3.8,3.3,15.3,15.3,0,0,1-3.4.9l-4.1.2Zm8.7-6.4c4.5,0,5-1.8,5-3.4a2.3,2.3,0,0,0-1.1-2.3,7.1,7.1,0,0,0-4.1-.9H72.3v6.6Zm-.9-12.8a8.6,8.6,0,0,0,3.1-.4,2.8,2.8,0,0,0,1.3-1.1,3.5,3.5,0,0,0,.3-1.4c0-1.4-.5-1.8-1-2a9.3,9.3,0,0,0-4.3-.7H72.3v5.6Z" style="fill: #fc6"/>
      <path d="M78.4,16.1l3.6.2a8.5,8.5,0,0,1,2.8,1,6.9,6.9,0,0,1,1.8,1.6A7.2,7.2,0,0,1,87.8,21a6.7,6.7,0,0,1,.4,2.4,6.6,6.6,0,0,1-4.3,6.4c3.8,1.3,5.7,3.6,5.7,7.2a8.3,8.3,0,0,1-1.2,4.4A7.9,7.9,0,0,1,85,44.3a12.7,12.7,0,0,1-3.1.8l-4,.2h-9a3.4,3.4,0,0,1-2.7-.9,3.5,3.5,0,0,1-.9-2.7v-22a3.8,3.8,0,0,1,.9-2.8,4.1,4.1,0,0,1,2.7-.8h9.5m-7.1,12h5.4a13.7,13.7,0,0,0,3.4-.4,3.5,3.5,0,0,0,1.8-1.6,3.2,3.2,0,0,0,.5-1.9c0-1.5-.5-2.5-1.5-2.9a11.9,11.9,0,0,0-4.8-.8H71.3v7.6m0,12.8h6.3c4,0,6-1.5,6-4.4a3.7,3.7,0,0,0-1.5-3.2,9.7,9.7,0,0,0-4.7-1H71.3v8.6m7.1-26.8H68.9a5.6,5.6,0,0,0-4.1,1.4,5.7,5.7,0,0,0-1.5,4.2v22a5.6,5.6,0,0,0,1.4,4.1,5.7,5.7,0,0,0,4.2,1.5h9l4.3-.2a12,12,0,0,0,3.5-1A9,9,0,0,0,90,42.5,9.8,9.8,0,0,0,91.6,37a8.6,8.6,0,0,0-3.8-7.5,8.4,8.4,0,0,0,2.4-6.1,8.1,8.1,0,0,0-.5-3.1,9.2,9.2,0,0,0-1.6-2.7,7.4,7.4,0,0,0-2.3-2,9.8,9.8,0,0,0-3.4-1.2,24.1,24.1,0,0,0-4-.3Zm-5.1,8.4h2.8c2.3,0,3.4.3,3.9.6s.4.2.4,1.1a1.1,1.1,0,0,1-.2.8h0a1.1,1.1,0,0,1-.8.7,10.2,10.2,0,0,1-2.7.3H73.3V22.5Zm0,11.8h4.1A6.9,6.9,0,0,1,81,35c.2.1.6.4.6,1.5s0,2.4-4,2.4H73.3V34.3Z" style="fill: #fc6"/>
    </g>
    <g>
      <path d="M107.7,46.8a16.7,16.7,0,0,1-6.5-1.2,13.1,13.1,0,0,1-4.9-3.4A12.6,12.6,0,0,1,93.4,37a18.7,18.7,0,0,1-1-6.4,19.7,19.7,0,0,1,1-6.5,14.4,14.4,0,0,1,3-5.1,12.2,12.2,0,0,1,4.8-3.3,18.7,18.7,0,0,1,6.4-1.1,15.7,15.7,0,0,1,8.3,2,13,13,0,0,1,5.3,5.6,18.9,18.9,0,0,1,1.8,8.4,18.9,18.9,0,0,1-1,6.5,14,14,0,0,1-2.9,5.2,12.9,12.9,0,0,1-4.9,3.3A16.7,16.7,0,0,1,107.7,46.8Zm-.1-25.5a7.2,7.2,0,0,0-2.9.6,5.7,5.7,0,0,0-2.2,1.6,8.4,8.4,0,0,0-1.5,3,13.1,13.1,0,0,0-.6,4.1,13.3,13.3,0,0,0,.6,4.2,8.4,8.4,0,0,0,1.5,3,7.2,7.2,0,0,0,2.3,1.7,6.8,6.8,0,0,0,2.9.6,6.5,6.5,0,0,0,3.6-1A7.5,7.5,0,0,0,114,36a12.1,12.1,0,0,0,1-5.4,12.9,12.9,0,0,0-.9-5.1,7.7,7.7,0,0,0-2.6-3.2A7.1,7.1,0,0,0,107.6,21.3Z" style="fill: #fc6"/>
      <path d="M107.6,15.6a16.1,16.1,0,0,1,7.8,1.8,12,12,0,0,1,4.9,5.3,16.4,16.4,0,0,1,1.7,7.9,19.7,19.7,0,0,1-.9,6.2,11.5,11.5,0,0,1-2.8,4.8,11,11,0,0,1-4.5,3.1,16.2,16.2,0,0,1-6.1,1.1,16.6,16.6,0,0,1-6.1-1.1,12.1,12.1,0,0,1-4.5-3.1,12.6,12.6,0,0,1-2.8-4.9,20,20,0,0,1-.9-6.1,17.9,17.9,0,0,1,1-6.2,12.9,12.9,0,0,1,2.8-4.8,12.3,12.3,0,0,1,4.4-3,16.4,16.4,0,0,1,6-1m.1,25.5a8.8,8.8,0,0,0,4.2-1.1,9.1,9.1,0,0,0,3-3.6,13.9,13.9,0,0,0,1.1-5.8,14,14,0,0,0-1-5.6,7.9,7.9,0,0,0-3-3.5,8.1,8.1,0,0,0-4.4-1.2,7.2,7.2,0,0,0-3.3.7,6.7,6.7,0,0,0-2.6,1.9,8.5,8.5,0,0,0-1.7,3.3,15.1,15.1,0,0,0-.6,4.4,15.3,15.3,0,0,0,.6,4.5,8.5,8.5,0,0,0,1.8,3.4,7.9,7.9,0,0,0,2.6,1.9,7.2,7.2,0,0,0,3.3.7m-.1-27.5a17.8,17.8,0,0,0-6.7,1.2,14.5,14.5,0,0,0-5.2,3.5,14.3,14.3,0,0,0-3.2,5.5,19,19,0,0,0-1.1,6.8,21.5,21.5,0,0,0,1,6.8,15,15,0,0,0,3.2,5.5,12.8,12.8,0,0,0,5.2,3.6,17.3,17.3,0,0,0,6.9,1.3,18.5,18.5,0,0,0,6.9-1.2,16.1,16.1,0,0,0,5.2-3.6,16.4,16.4,0,0,0,3.2-5.6,20.7,20.7,0,0,0,1-6.8,19,19,0,0,0-1.9-8.8,14,14,0,0,0-5.7-6.1,17.6,17.6,0,0,0-8.8-2.1Zm.1,25.5a7,7,0,0,1-2.5-.5,5.3,5.3,0,0,1-1.9-1.5,7.1,7.1,0,0,1-1.4-2.6,14.8,14.8,0,0,1-.5-3.9,14.6,14.6,0,0,1,.5-3.8,7.1,7.1,0,0,1,1.4-2.6,4.9,4.9,0,0,1,1.8-1.4,5.3,5.3,0,0,1,2.5-.5,6.4,6.4,0,0,1,3.4.9,5.3,5.3,0,0,1,2.1,2.7,11.3,11.3,0,0,1,.9,4.7,12.1,12.1,0,0,1-.9,5,5.4,5.4,0,0,1-2.3,2.6,5.6,5.6,0,0,1-3.1.9Z" style="fill: #fc6"/>
    </g>
  </g>
  <g>
    <g>
      <path d="M201.9,46.8a3.4,3.4,0,0,1-2.7-1.2,4.4,4.4,0,0,1-1-3.2V30.3l-2.7,10.8a28.5,28.5,0,0,1-.8,2.8,4.3,4.3,0,0,1-4.2,2.9,4.6,4.6,0,0,1-2.3-.6,4,4,0,0,1-1.4-1.5,4.8,4.8,0,0,1-.7-1.8c-.2-.5-.3-1.1-.5-1.8l-2.7-10.7v12a4.9,4.9,0,0,1-1,3.2,3.6,3.6,0,0,1-5.4,0,4.4,4.4,0,0,1-1.1-3.2V19.3a3.8,3.8,0,0,1,1.5-3.4,6.1,6.1,0,0,1,3.2-.8H182a9.1,9.1,0,0,1,2.7.3,3.3,3.3,0,0,1,1.7,1.6l.9,2.7,3.2,12.4,3.3-12.4a13.9,13.9,0,0,1,.9-2.7,3.1,3.1,0,0,1,1.6-1.6,10.4,10.4,0,0,1,2.8-.3h1.8a6.2,6.2,0,0,1,3.3.8,4,4,0,0,1,1.4,3.4V42.4a4.4,4.4,0,0,1-1,3.2A3.4,3.4,0,0,1,201.9,46.8Z" style="fill: #ffc857"/>
      <path d="M200.9,16.1a4.9,4.9,0,0,1,2.7.6,3,3,0,0,1,1,2.6V42.4a3.8,3.8,0,0,1-.7,2.6,2.9,2.9,0,0,1-4,0,3.8,3.8,0,0,1-.7-2.6V22.3l-4.7,18.6c-.3,1.2-.6,2.1-.7,2.7a4.8,4.8,0,0,1-1.1,1.5,2.9,2.9,0,0,1-2.2.7,3.1,3.1,0,0,1-1.7-.5,2,2,0,0,1-1.1-1.1,10.1,10.1,0,0,1-.7-1.5c-.1-.6-.3-1.2-.4-1.8l-4.7-18.6V42.4a3.8,3.8,0,0,1-.8,2.6,2.6,2.6,0,0,1-1.9.8,2.8,2.8,0,0,1-2-.8,3.8,3.8,0,0,1-.8-2.6V19.3a3.3,3.3,0,0,1,1-2.6,5.4,5.4,0,0,1,2.7-.6H182a7,7,0,0,1,2.4.3,2,2,0,0,1,1.1,1.1,18.7,18.7,0,0,1,.8,2.5l4.2,16,4.3-16a18.7,18.7,0,0,1,.8-2.5,1.7,1.7,0,0,1,1.1-1.1,7,7,0,0,1,2.4-.3h1.8m0-2h-1.8a8.3,8.3,0,0,0-3.1.4,3.8,3.8,0,0,0-2.2,2.1,22.8,22.8,0,0,0-1,2.9l-2.3,8.7-2.3-8.7a17,17,0,0,0-.9-2.9,4.1,4.1,0,0,0-2.2-2.1,8.3,8.3,0,0,0-3.1-.4h-1.9a6.5,6.5,0,0,0-3.8,1,4.9,4.9,0,0,0-1.9,4.2V42.4a5.7,5.7,0,0,0,1.3,3.9,4.5,4.5,0,0,0,3.5,1.5,4.5,4.5,0,0,0,3.4-1.5,5.3,5.3,0,0,0,1.3-3.9v-4l.7,3a12.1,12.1,0,0,1,.5,1.8,11.9,11.9,0,0,0,.8,2,6.2,6.2,0,0,0,1.8,1.8,5.4,5.4,0,0,0,2.8.8,5,5,0,0,0,3.5-1.2,5.4,5.4,0,0,0,1.6-2.4,14.3,14.3,0,0,0,.8-2.8l.8-3v4a5.3,5.3,0,0,0,1.3,3.9,4.2,4.2,0,0,0,3.4,1.5,4.5,4.5,0,0,0,3.5-1.5,5.7,5.7,0,0,0,1.2-3.9V19.3a4.7,4.7,0,0,0-1.9-4.2,6.3,6.3,0,0,0-3.8-1Z" style="fill: #ffc857"/>
    </g>
    <g>
      <path d="M223.7,46.8a16.7,16.7,0,0,1-6.5-1.2,12.3,12.3,0,0,1-4.9-3.4,14,14,0,0,1-3-5.2,21.5,21.5,0,0,1-.9-6.4,19.7,19.7,0,0,1,1-6.5,14.4,14.4,0,0,1,3-5.1,11.5,11.5,0,0,1,4.8-3.3,18.3,18.3,0,0,1,6.4-1.1,16,16,0,0,1,8.3,2,13,13,0,0,1,5.3,5.6,18.9,18.9,0,0,1,1.8,8.4,21.6,21.6,0,0,1-1,6.5,12.9,12.9,0,0,1-3,5.2,12.5,12.5,0,0,1-4.8,3.3A16.7,16.7,0,0,1,223.7,46.8Zm-.1-25.5a6.8,6.8,0,0,0-2.9.6,5,5,0,0,0-2.2,1.6,8.6,8.6,0,0,0-1.6,3,13.2,13.2,0,0,0-.5,4.1,13.4,13.4,0,0,0,.5,4.2,8.6,8.6,0,0,0,1.6,3,6.3,6.3,0,0,0,2.3,1.7,6.4,6.4,0,0,0,2.8.6,6.6,6.6,0,0,0,6.3-4.1,12,12,0,0,0,1.1-5.4,11.3,11.3,0,0,0-1-5.1,6.4,6.4,0,0,0-2.6-3.2A7,7,0,0,0,223.6,21.3Z" style="fill: #ffc857"/>
      <path d="M223.6,15.6a16.1,16.1,0,0,1,7.8,1.8,12.6,12.6,0,0,1,4.9,5.3,17.7,17.7,0,0,1,1.7,7.9,19.7,19.7,0,0,1-.9,6.2,14.1,14.1,0,0,1-2.8,4.8,11,11,0,0,1-4.5,3.1,16.6,16.6,0,0,1-6.1,1.1,17.1,17.1,0,0,1-6.2-1.1,12.1,12.1,0,0,1-4.5-3.1,13.7,13.7,0,0,1-2.7-4.9,20,20,0,0,1-.9-6.1,20.6,20.6,0,0,1,.9-6.2,16.4,16.4,0,0,1,2.8-4.8,11.9,11.9,0,0,1,4.5-3,15.7,15.7,0,0,1,6-1m0,25.5a8.5,8.5,0,0,0,4.2-1.1,7.7,7.7,0,0,0,3-3.6,12.5,12.5,0,0,0,1.2-5.8,14,14,0,0,0-1.1-5.6,7.7,7.7,0,0,0-2.9-3.5,8.3,8.3,0,0,0-4.4-1.2,7.2,7.2,0,0,0-3.3.7,6.1,6.1,0,0,0-2.6,1.9,8.5,8.5,0,0,0-1.7,3.3,15.1,15.1,0,0,0-.6,4.4,15.3,15.3,0,0,0,.6,4.5,8.5,8.5,0,0,0,1.8,3.4,7,7,0,0,0,2.6,1.9,7.1,7.1,0,0,0,3.2.7m0-27.5a18.3,18.3,0,0,0-6.8,1.2,14.1,14.1,0,0,0-5.1,3.5,14.4,14.4,0,0,0-3.3,5.5,21.5,21.5,0,0,0-1,6.8,21.5,21.5,0,0,0,1,6.8,14.9,14.9,0,0,0,3.1,5.5,13.2,13.2,0,0,0,5.3,3.6,16.7,16.7,0,0,0,6.9,1.3,18.3,18.3,0,0,0,6.8-1.2,15.5,15.5,0,0,0,5.3-3.6,16.4,16.4,0,0,0,3.2-5.6,23.7,23.7,0,0,0,1-6.8,20.3,20.3,0,0,0-1.9-8.8,14,14,0,0,0-5.7-6.1,17.9,17.9,0,0,0-8.8-2.1Zm0,25.5a6,6,0,0,1-2.4-.5,4.5,4.5,0,0,1-1.9-1.5,5.9,5.9,0,0,1-1.4-2.6,11.5,11.5,0,0,1-.5-3.9,11.3,11.3,0,0,1,.5-3.8,7,7,0,0,1,1.3-2.6,5.2,5.2,0,0,1,1.9-1.4,5.1,5.1,0,0,1,2.5-.5,6,6,0,0,1,3.3.9,5,5,0,0,1,2.2,2.7,11.3,11.3,0,0,1,.9,4.7,10.6,10.6,0,0,1-1,5,5.2,5.2,0,0,1-2.2,2.6,5.9,5.9,0,0,1-3.2.9Z" style="fill: #ffc857"/>
    </g>
    <g>
      <path d="M264.4,46.8a4.8,4.8,0,0,1-1.8-.3,6,6,0,0,1-1.5-.9l-1.2-1.3a7.1,7.1,0,0,0-1-1.4l-9.2-14.2V42.4a4.4,4.4,0,0,1-1.1,3.2,3.4,3.4,0,0,1-2.7,1.2,3.6,3.6,0,0,1-2.8-1.2,5.1,5.1,0,0,1-1-3.2V19.9a7,7,0,0,1,.4-2.7,4.2,4.2,0,0,1,1.6-1.9,4.5,4.5,0,0,1,2.5-.7,4.8,4.8,0,0,1,1.8.3l1.3.9,1,1.3.9,1.5L261.1,33V19a4.9,4.9,0,0,1,1-3.2,3.4,3.4,0,0,1,2.7-1.2,3.5,3.5,0,0,1,2.8,1.2,4.9,4.9,0,0,1,1,3.2V42C268.6,46.2,265.9,46.8,264.4,46.8Z" style="fill: #ffc857"/>
      <path d="M264.8,15.6a2.6,2.6,0,0,1,2,.8,3.8,3.8,0,0,1,.8,2.6V42c0,2.5-1.1,3.8-3.2,3.8l-1.4-.2a2.5,2.5,0,0,1-1.2-.8,5.7,5.7,0,0,1-1.1-1.1l-.9-1.4-11.1-17V42.4a3.6,3.6,0,0,1-.8,2.5,2.5,2.5,0,0,1-2,.9,2.4,2.4,0,0,1-2-.9,3.6,3.6,0,0,1-.8-2.5V19.9a7.1,7.1,0,0,1,.3-2.3,3.7,3.7,0,0,1,1.3-1.5,4.1,4.1,0,0,1,1.9-.5l1.4.2a3.1,3.1,0,0,1,.9.7l.9,1.2,1,1.4,11.3,17.2V19a3.8,3.8,0,0,1,.8-2.6,2.4,2.4,0,0,1,1.9-.8m0-2a4.5,4.5,0,0,0-3.5,1.5,6.1,6.1,0,0,0-1.2,3.9V29.7L252.4,18l-.9-1.4a9.7,9.7,0,0,0-1.1-1.5,9.1,9.1,0,0,0-1.6-1.1,5.4,5.4,0,0,0-2.2-.4,5.3,5.3,0,0,0-3,.9,5.5,5.5,0,0,0-2,2.3h0a8.1,8.1,0,0,0-.5,3V42.4a5.2,5.2,0,0,0,1.3,3.8,4.3,4.3,0,0,0,3.5,1.6,4.5,4.5,0,0,0,3.5-1.5,6.1,6.1,0,0,0,1.3-3.9V32l7.4,11.4,1,1.4a6.4,6.4,0,0,0,1.3,1.5,7.6,7.6,0,0,0,1.9,1.2,6.6,6.6,0,0,0,2.1.3c3.2,0,5.2-2.2,5.2-5.8V19a5.4,5.4,0,0,0-1.3-3.9,4.3,4.3,0,0,0-3.5-1.5Z" style="fill: #ffc857"/>
    </g>
    <g>
      <path d="M296.1,46.8a3.9,3.9,0,0,1-2.5-.7,4.4,4.4,0,0,1-1.6-1.7l-1-1.6-6.3-9.7L281,36.6v5.6a5,5,0,0,1-1.1,3.4,3.7,3.7,0,0,1-2.9,1.2,4.1,4.1,0,0,1-1.9-.5,4.3,4.3,0,0,1-1.5-1.5,4.7,4.7,0,0,1-.4-1.7,12.8,12.8,0,0,1-.1-2.2V19.2a4.9,4.9,0,0,1,1-3.4,4.1,4.1,0,0,1,5.8,0,5,5,0,0,1,1.1,3.4v7.7l9.9-10.3a9.4,9.4,0,0,1,1.6-1.4,3.5,3.5,0,0,1,2.1-.6,3.9,3.9,0,0,1,2.8,1,3.6,3.6,0,0,1,1.1,2.6,4.5,4.5,0,0,1-1.7,3.2l-6.5,6.3,7.8,11.1c.6.9,1,1.7,1.4,2.4a5.9,5.9,0,0,1,.5,2.2,3.4,3.4,0,0,1-1.1,2.4A3.7,3.7,0,0,1,296.1,46.8Z" style="fill: #ffc857"/>
      <path d="M294.6,15.6a2.8,2.8,0,0,1,2.1.7,2.6,2.6,0,0,1,.8,1.9,3.6,3.6,0,0,1-1.4,2.5l-7.2,6.8,8.3,11.9a8.9,8.9,0,0,1,1.3,2.2,4.1,4.1,0,0,1,.5,1.8,2.5,2.5,0,0,1-.8,1.7,2.8,2.8,0,0,1-2.1.7,3.9,3.9,0,0,1-2-.5,8.6,8.6,0,0,1-1.3-1.4l-.9-1.6-7-10.8L280,36.2v6a4.1,4.1,0,0,1-.8,2.7,2.9,2.9,0,0,1-2.2.9,2.3,2.3,0,0,1-1.4-.4,2.3,2.3,0,0,1-1.1-1.1,2.5,2.5,0,0,1-.3-1.3,12.2,12.2,0,0,1-.1-2.1V19.2a4.1,4.1,0,0,1,.8-2.7,2.6,2.6,0,0,1,2.1-.9,2.9,2.9,0,0,1,2.2.9,4.1,4.1,0,0,1,.8,2.7V29.4l11.6-12.1,1.5-1.3a2.4,2.4,0,0,1,1.5-.4m0-2a4.1,4.1,0,0,0-2.7.8,7.3,7.3,0,0,0-1.7,1.5L282,24.4V19.2a5.4,5.4,0,0,0-1.4-4.1,4.6,4.6,0,0,0-3.6-1.5,4.4,4.4,0,0,0-3.6,1.6,5.5,5.5,0,0,0-1.3,4V40.9a14.8,14.8,0,0,0,.1,2.3,4.6,4.6,0,0,0,.5,2h0a4.7,4.7,0,0,0,1.9,1.8,4.2,4.2,0,0,0,2.4.7,4.8,4.8,0,0,0,3.6-1.5,6,6,0,0,0,1.4-4.1V37l2.5-2.4,5.6,8.7,1,1.6a6.1,6.1,0,0,0,1.9,2,5.4,5.4,0,0,0,3.1.9,4.8,4.8,0,0,0,3.5-1.3,4.1,4.1,0,0,0,1.4-3.1,6.6,6.6,0,0,0-.6-2.7l-1.5-2.4-7.3-10.5,5.9-5.6a5.7,5.7,0,0,0,2-4,4.5,4.5,0,0,0-1.4-3.3,4.8,4.8,0,0,0-3.5-1.3Z" style="fill: #ffc857"/>
    </g>
    <g>
      <path d="M307.9,46.3a4.6,4.6,0,0,1-3.5-1.2,4.8,4.8,0,0,1-1.1-3.4v-22a6.2,6.2,0,0,1,.4-2.5,4,4,0,0,1,1.7-1.7,6.2,6.2,0,0,1,2.5-.4h15.6a3.9,3.9,0,0,1,2.8.9,3,3,0,0,1,1,2.4,3.3,3.3,0,0,1-1,2.4,4.4,4.4,0,0,1-2.8.8H311.2v5.2h11.3a4,4,0,0,1,2.7.9,3.3,3.3,0,0,1,1,2.3,3.3,3.3,0,0,1-1,2.4,3.8,3.8,0,0,1-2.7.9H311.2v6.3H324a4.1,4.1,0,0,1,2.8.9,3.6,3.6,0,0,1,1,2.5,3.5,3.5,0,0,1-1,2.4,4.1,4.1,0,0,1-2.8.9Z" style="fill: #ffc857"/>
      <path d="M323.5,16.1a2.9,2.9,0,0,1,2.1.6,2.1,2.1,0,0,1,.7,1.7,2,2,0,0,1-.7,1.6,2.9,2.9,0,0,1-2.1.6H310.2v7.2h12.3a3,3,0,0,1,2,.6,2.4,2.4,0,0,1,.7,1.6,2.6,2.6,0,0,1-.7,1.7,2.8,2.8,0,0,1-2,.6H310.2v8.3H324a3.3,3.3,0,0,1,2.1.6,2.3,2.3,0,0,1,.7,1.8,2.2,2.2,0,0,1-.7,1.7,3.3,3.3,0,0,1-2.1.6H307.9a3.8,3.8,0,0,1-2.8-.9,4,4,0,0,1-.8-2.7v-22a6.6,6.6,0,0,1,.3-2.1,3.4,3.4,0,0,1,1.2-1.2,6.6,6.6,0,0,1,2.1-.3h15.6m0-2H307.9a8.4,8.4,0,0,0-2.9.5,4.7,4.7,0,0,0-2.2,2.2,7.9,7.9,0,0,0-.5,2.9v22a5.3,5.3,0,0,0,1.4,4.1,5.5,5.5,0,0,0,4.2,1.5H324a4.7,4.7,0,0,0,3.4-1.2,4.1,4.1,0,0,0,1.4-3.1,4.2,4.2,0,0,0-1.4-3.2,4.7,4.7,0,0,0-3.4-1.2H312.2V34.3h10.3a4.7,4.7,0,0,0,3.4-1.2,4.4,4.4,0,0,0,1.3-3.1,4.1,4.1,0,0,0-1.4-3.1,4.9,4.9,0,0,0-3.3-1.1H312.2V22.6h11.3a4.9,4.9,0,0,0,3.5-1.1,4,4,0,0,0,1.3-3.1,4.1,4.1,0,0,0-1.3-3.2,5.4,5.4,0,0,0-3.5-1.1Z" style="fill: #ffc857"/>
    </g>
    <g>
      <path d="M343,46.8a3.7,3.7,0,0,1-2.9-1.2,5,5,0,0,1-1.1-3.4v-9l-7-10.8a23.5,23.5,0,0,1-1.4-2.5,4.2,4.2,0,0,1-.4-1.8,3.1,3.1,0,0,1,1.1-2.5,3.5,3.5,0,0,1,2.6-1,3.3,3.3,0,0,1,2.6,1,25.1,25.1,0,0,1,2,2.9l4.6,7.5,4.7-7.5.8-1.4a8.3,8.3,0,0,1,.8-1.2,4.7,4.7,0,0,1,1.2-.9,3.3,3.3,0,0,1,1.7-.4,3.5,3.5,0,0,1,2.6,1,3.3,3.3,0,0,1,1,2.4,3.7,3.7,0,0,1-.5,2,15,15,0,0,1-1.3,2.3l-7.2,10.9v9a4.5,4.5,0,0,1-1.1,3.4A3.6,3.6,0,0,1,343,46.8Z" style="fill: #ffc857"/>
      <path d="M352.3,15.6a2.5,2.5,0,0,1,1.9.7,2.3,2.3,0,0,1,.7,1.7,2.8,2.8,0,0,1-.4,1.5,9.9,9.9,0,0,1-1.2,2.2l-7.4,11.2v9.3a3.6,3.6,0,0,1-.8,2.7,2.9,2.9,0,0,1-2.1.9,2.9,2.9,0,0,1-2.2-.9,4.1,4.1,0,0,1-.8-2.7V32.9l-7.1-11a15.1,15.1,0,0,1-1.3-2.4,2.7,2.7,0,0,1-.4-1.4,2.2,2.2,0,0,1,.8-1.8,2.5,2.5,0,0,1,1.9-.7,2.1,2.1,0,0,1,1.8.7,10.5,10.5,0,0,1,1.9,2.7l5.5,8.9,5.5-8.9.8-1.4.8-1,.9-.8,1.2-.2m0-2a3.6,3.6,0,0,0-2.1.5,4.4,4.4,0,0,0-1.5,1.2,6.4,6.4,0,0,0-1,1.3l-.3.5-.5.9-3.8,6.1L339.3,18a25.9,25.9,0,0,0-2.1-3.1,4.3,4.3,0,0,0-3.3-1.3,4.4,4.4,0,0,0-3.3,1.3,4.2,4.2,0,0,0-1.4,3.2,7.4,7.4,0,0,0,.5,2.3l1.5,2.5L338,33.5v8.7a6,6,0,0,0,1.4,4.1,4.6,4.6,0,0,0,3.6,1.5,4.9,4.9,0,0,0,3.6-1.5,5.9,5.9,0,0,0,1.3-4.1V33.5l7-10.7a17.5,17.5,0,0,0,1.4-2.4,5.3,5.3,0,0,0,.6-2.4,4,4,0,0,0-1.3-3.1,4.4,4.4,0,0,0-3.3-1.3Z" style="fill: #ffc857"/>
    </g>
  </g>
</svg>
