<svg id="_605015a3-0fc8-4173-a59d-c4c54aeac38a" data-name="605015a3-0fc8-4173-a59d-c4c54aeac38a" xmlns="http://www.w3.org/2000/svg" viewBox="0 0 356.6 386.4">
<defs>
    <style>
      .\31 13b338c-1812-449a-a341-d63bb7db172e {
        fill: #F9C251;
        transform: rotate(-45deg);
        transform-origin: center;
      }
    </style>
</defs>
    <circle class="113b338c-1812-449a-a341-d63bb7db172e" cx="164.4" cy="236.23" r="8.55"/>
    <circle class="113b338c-1812-449a-a341-d63bb7db172e" cx="191.88" cy="236.23" r="8.55" transform="translate(-99.8 323.1) rotate(-67.5)"/>
    <path class="113b338c-1812-449a-a341-d63bb7db172e" d="M240,174.13h-3.24a45.69,45.69,0,0,1,1.14,6.37,44.21,44.21,0,0,0-43.8-39.25h-10c1.4-10.75,9.93-19,20.23-19a5.25,5.25,0,0,0,3.94-2.43c2.17-.09,4.82-.15,7.9-.15a2.63,2.63,0,0,0,0-5.26c-2.73,0-5.35.06-7.69.15a5.23,5.23,0,0,0-4.15-2.78,30.14,30.14,0,0,0-22.19,9.9c-.26-1.54-.55-3-.87-4.41-.89-3.66-3.48-14.8-11.18-14.8a5.2,5.2,0,0,0-4,1.93c-1.35-.09-2.7-.15-4.05-.14a2.63,2.63,0,0,0,0,5.26c1.06,0,2.11,0,3.17.06a5.16,5.16,0,0,0,3.45,3.18c.91,1.32,2.07,4.67,3,9.86a19.83,19.83,0,0,0-9.5-2.44,5.46,5.46,0,0,0-1,0,5.26,5.26,0,0,0-4.27,3.07c-3.26.44-6.13,1.28-7.66,2.71a3.89,3.89,0,0,0-1.36,2.82h0a2.64,2.64,0,0,0,2.54,2.73h.09A2.65,2.65,0,0,0,153,129.6a13.15,13.15,0,0,1,4.4-1.17,5.23,5.23,0,0,0,4.76,2.2c5.33,0,9.78,4.54,10.93,10.62H162.19A44.19,44.19,0,0,0,118.4,180.5a44.25,44.25,0,0,1,1.13-6.37h-2.91a22.08,22.08,0,0,0-22.08,22v11.09a22.12,22.12,0,0,0,11.89,19.56A37.71,37.71,0,0,0,138.79,284h78.69a37.7,37.7,0,0,0,32.43-57,22.12,22.12,0,0,0,12.15-19.69V196.16A22.08,22.08,0,0,0,240,174.13Zm0,10.38a11.74,11.74,0,0,1,8.74,4c-1.93,2-3.34,7.28-3.34,13.52s1.27,11.09,3.1,13.25a11.68,11.68,0,0,1-5.44,3.25,37.66,37.66,0,0,0-4.89-3.83V185.31c0-.59,0-1.18-.05-1.76,0,.32,0,.64.05,1Zm-1.92-1.82c0-.54-.07-1.09-.12-1.63C238,181.61,238,182.15,238.06,182.69Zm-97.95-19.46A31.07,31.07,0,0,1,162.19,154h31.89a31.07,31.07,0,0,1,22.08,9.21,34.93,34.93,0,0,1,4.42,5.5,40.43,40.43,0,0,0-23.35-7.38h-38.1a40.13,40.13,0,0,0-23.48,7.52A29.61,29.61,0,0,1,140.11,163.23Zm-9.21,32.69a29,29,0,0,1,7.85-14.23,28.64,28.64,0,0,1,20.38-8.5h38.1a29.12,29.12,0,0,1,28.14,22.31v13.77a36.25,36.25,0,0,1,8.36,2.87,37.78,37.78,0,0,0-16.25-3.72H206.3A19.38,19.38,0,0,0,209.77,197c0-8.84-5.19-16-11.6-16s-11.6,7.17-11.6,16A19.38,19.38,0,0,0,190,208.42H164A19.38,19.38,0,0,0,167.5,197c0-8.84-5.2-16-11.61-16s-11.6,7.17-11.6,16a19.38,19.38,0,0,0,3.47,11.42h-9a37.82,37.82,0,0,0-14.58,3,36.15,36.15,0,0,1,6.69-2.12Zm104.28,17-.29-.15Zm-127-24.71a11.57,11.57,0,0,1,8.45-3.66h1.51c0-.32,0-.64,0-1,0,.58,0,1.17,0,1.76v29.34a38.26,38.26,0,0,0-4.83,3.75,11.57,11.57,0,0,1-5.42-3.45c2-1.93,3.34-7.23,3.34-13.48S110,190.33,108.17,188.17Zm10.17-7.11c-.06.54-.1,1.09-.13,1.63C118.24,182.15,118.28,181.61,118.34,181.06Zm4.36,31h0Zm94.78,58.87H138.79a24.76,24.76,0,0,1,0-49.51h78.69a24.76,24.76,0,0,1,0,49.51Z"/>
</svg>