<svg id="_605015a3-0fc8-4173-a59d-c4c54aeac38a" data-name=" 605015a3-0fc8-4173-a59d-c4c54aeac38a" xmlns="http://www.w3.org/2000/svg" viewBox="0 0 250.39 280.08"><defs><style>.cls-1{fill:#f9c251;}</style></defs><circle class="cls-1" cx="47.56" cy="73.1" r="6.43"/><circle class="cls-1" cx="62.44" cy="87.45" r="6.43"/><path class="cls-1" d="M120.92,79.11l-1.75-1.7a33.84,33.84,0,0,1-2.71,4,33.26,33.26,0,0,0-3.22-44.13l-5.42-5.23c6.38-5.09,15.31-5.1,20.88.28a4,4,0,0,0,3.41.74c1.22,1.09,2.69,2.44,4.35,4a2,2,0,0,0,2.75-2.85h0c-1.48-1.43-2.93-2.76-4.24-3.94a3.94,3.94,0,0,0-.8-3.67A22.66,22.66,0,0,0,117,20.43c.67-1,1.27-1.91,1.84-2.84,1.43-2.45,5.84-9.83,1.67-13.86a3.93,3.93,0,0,0-3.17-1c-.69-.75-1.39-1.49-2.12-2.19a2,2,0,0,0-2.75,2.85h0c.57.55,1.14,1.1,1.68,1.69a3.87,3.87,0,0,0,.21,3.52c-.19,1.19-1.32,3.61-3.52,6.91A15.05,15.05,0,0,0,107,9.22a5.29,5.29,0,0,0-.54-.52,4,4,0,0,0-3.92-.57c-2-1.46-4-2.5-5.56-2.53a2.92,2.92,0,0,0-2.21.82h0a2,2,0,0,0,0,2.8h0a2,2,0,0,0,2.36.27,9.82,9.82,0,0,1,3,1.67,3.92,3.92,0,0,0,1.43,3.67c2.89,2.79,2.92,7.57.37,11.46L96,20.6a33.26,33.26,0,0,0-44.24-1.55,32.41,32.41,0,0,1,3.94-2.86l-1.55-1.52a16.6,16.6,0,0,0-23.47.38l-5.79,6a16.66,16.66,0,0,0-3.74,16.81A28.36,28.36,0,0,0,8.73,85.75l42.61,41.1a28.36,28.36,0,0,0,47.34-13.93,16.63,16.63,0,0,0,16.86-4.32l5.83-6a16.6,16.6,0,0,0-.43-23.47Zm-5.42,5.62a8.83,8.83,0,0,1,2.65,6.73c-2.09.07-5.61,2.2-8.87,5.58s-5.11,6.67-5.24,8.79a8.77,8.77,0,0,1-4.65-1.08,27.75,27.75,0,0,0-.65-4.63l15.39-15.91a12.31,12.31,0,0,0,.9-1,4.44,4.44,0,0,0-.5.56Zm-.09-2a10.84,10.84,0,0,0,.79-1c-.27.32-.55.62-.8.94ZM72.53,21.05A23.35,23.35,0,0,1,89.3,27.58l17.27,16.65a23.38,23.38,0,0,1,7.15,16.52,26,26,0,0,1-.48,5.29,30.49,30.49,0,0,0-8.79-16.19L83.81,30a30.16,30.16,0,0,0-16.68-8.2,21.78,21.78,0,0,1,5.39-.7ZM50.47,33.94a21.91,21.91,0,0,1,27.16,2.43l20.63,19.9a21.89,21.89,0,0,1,3.59,26.78l-7.19,7.46a27.23,27.23,0,0,1,3,5.92,28.48,28.48,0,0,0-6.86-10.5l-6-5.88a14.61,14.61,0,0,0,7.85-4.38C97.23,70.89,98.15,64.3,94.68,61s-10-2.18-14.64,2.61a14.56,14.56,0,0,0-4.1,8L61.86,58a14.63,14.63,0,0,0,7.86-4.35c4.61-4.79,5.54-11.38,2.07-14.73s-10-2.18-14.64,2.6a14.61,14.61,0,0,0-4.09,8l-4.87-4.7a28.61,28.61,0,0,0-9.47-6,27.07,27.07,0,0,1,4.73,2.35Zm47.6,63.67L98,97.37ZM42.19,17.89a8.69,8.69,0,0,1,6.49,2.44l.82.78.52-.54-.92,1L33.78,37.41a29.29,29.29,0,0,0-4.58-.49,8.78,8.78,0,0,1-1.13-4.7c2.09,0,5.58-2.17,8.85-5.55S42.06,20,42.2,17.86Zm9.22,1.47c-.31.26-.62.53-.92.81a9.37,9.37,0,0,1,.93-.85Zm6.72,100.45L15.53,78.69A18.63,18.63,0,0,1,41.39,51.88L84,93a18.63,18.63,0,1,1-25.88,26.81Z" transform="translate(0.01 -0.16)"/><circle class="cls-1" cx="188.15" cy="257.68" r="6.43"/><circle class="cls-1" cx="202.91" cy="243.21" r="6.43"/><path class="cls-1" d="M196.06,159.66l-1.74,1.7a34,34,0,0,1,4,2.83,33.25,33.25,0,0,0-44.21,2l-5.37,5.27c-4.91-6.51-4.67-15.44.87-20.86a4,4,0,0,0,.83-3.38c1.12-1.2,2.51-2.62,4.17-4.24a2,2,0,0,0-2.77-2.83h0c-1.47,1.44-2.84,2.85-4.05,4.13a4,4,0,0,0-3.7.69,22.66,22.66,0,0,0-6.71,17c-.95-.69-1.88-1.32-2.79-1.91-2.41-1.5-9.66-6.12-13.8-2.06a3.87,3.87,0,0,0-1.13,3.14c-.78.66-1.53,1.34-2.26,2.06a2,2,0,0,0,2.77,2.82h0c.57-.56,1.14-1.11,1.74-1.63a3.89,3.89,0,0,0,3.53-.11c1.18.23,3.57,1.42,6.8,3.72a14.81,14.81,0,0,0-6.39,3.69,4.51,4.51,0,0,0-.54.53,4,4,0,0,0-.67,3.89c-1.52,2-2.62,3.92-2.69,5.49a2.89,2.89,0,0,0,.75,2.23h0a2,2,0,0,0,2.8.13h0a2,2,0,0,0,.34-2.35,10,10,0,0,1,1.75-2.94,3.9,3.9,0,0,0,3.71-1.33c2.87-2.8,7.65-2.7,11.47,0l-5.86,5.74a33.24,33.24,0,0,0-2.86,44.15,31.17,31.17,0,0,1-2.75-4l-1.57,1.53a16.62,16.62,0,0,0-.28,23.45l5.84,6A16.63,16.63,0,0,0,152,258.46a28.37,28.37,0,0,0,47.54,13.59l42.29-41.44a28.37,28.37,0,0,0-12.58-47.76,16.66,16.66,0,0,0-3.84-17l-5.87-6A16.62,16.62,0,0,0,196.06,159.66Zm5.47,5.58a8.8,8.8,0,0,1,6.8-2.46c0,2.09,2,5.67,5.33,9s6.52,5.29,8.64,5.49a8.79,8.79,0,0,1-1.21,4.61,27.92,27.92,0,0,0-4.65.51L201,166.6a12.38,12.38,0,0,0-1-.92,6.77,6.77,0,0,0,.56.51Zm-2,0c-.29-.29-.61-.55-.92-.81.31.27.59.56.91.82Zm-62.89,41.11a23.37,23.37,0,0,1,7-16.57l17.14-16.73a23.4,23.4,0,0,1,16.72-6.68,26,26,0,0,1,5.27.63,30.37,30.37,0,0,0-16.43,8.33l-20.48,20.06a30.12,30.12,0,0,0-8.66,16.4,22.5,22.5,0,0,1-.56-5.36Zm12.26,22.42a21.92,21.92,0,0,1-3.26-11.72,21.56,21.56,0,0,1,6.48-15.3l20.47-20.06a21.91,21.91,0,0,1,26.87-2.83l7.25,7.4a27.27,27.27,0,0,1,6-2.85A28.4,28.4,0,0,0,202,190l-6,5.9a14.57,14.57,0,0,0-4.15-8c-4.66-4.76-11.22-5.87-14.66-2.5s-2.46,10,2.19,14.71a14.6,14.6,0,0,0,7.86,4.33l-14,13.69a14.54,14.54,0,0,0-4.13-8c-4.65-4.75-11.22-5.86-14.66-2.48s-2.46,10,2.19,14.7a14.56,14.56,0,0,0,7.88,4.31l-4.84,4.74a28.47,28.47,0,0,0-6.26,9.29,28.35,28.35,0,0,1,2.49-4.6Zm65-45.77-.24.07Zm-81.27,53.59a8.71,8.71,0,0,1,2.62-6.41l.81-.8-.53-.54.93.95,15.45,15.77a28.09,28.09,0,0,0-.62,4.56,8.73,8.73,0,0,1-4.73,1c.06-2.09-2-5.65-5.31-9s-6.53-5.33-8.65-5.52Zm1.73-9.17c.25.32.52.63.78.94a12.41,12.41,0,0,1-.82-1ZM235,223.51,192.65,265a18.63,18.63,0,0,1-26.07-26.6l42.29-41.44a18.63,18.63,0,0,1,26.07,26.61Z" transform="translate(0.01 -0.16)"/></svg>