<svg xmlns="http://www.w3.org/2000/svg" width="20.001" height="26" viewBox="0 0 20.001 26">
  <defs>
    <style>
      .cls-1 {
        fill: #fbfbfb;
      }
    </style>
  </defs>
  <g id="Group_183" data-name="Group 183" transform="translate(-760 -601)">
    <path id="Subtraction_3" data-name="Subtraction 3" class="cls-1" d="M-1846-7757h-14a3,3,0,0,1-3-3v-20a3,3,0,0,1,3-3h7v6a4,4,0,0,0,4,4h6v13A3,3,0,0,1-1846-7757Z" transform="translate(2623 8384)"/>
    <path id="Rectangle_161" data-name="Rectangle 161" class="cls-1" d="M0,0H0A8,8,0,0,1,8,8V8A0,0,0,0,1,8,8H3A3,3,0,0,1,0,5V0A0,0,0,0,1,0,0Z" transform="translate(772 601)"/>
  </g>
</svg>
