<svg id="Layer_1" data-name="Layer 1" xmlns="http://www.w3.org/2000/svg" viewBox="0 0 829.5 667">
<defs>
<style>
.cls-1{fill:#DFA52C;}
</style>
</defs>
<circle class="cls-1" cx="388.4" cy="323.4" r="18.15" transform="translate(-63.91 97.89) rotate(-13.28)"/>
<circle class="cls-1" cx="446.9" cy="323.4" r="18.15" transform="translate(-62.35 111.33) rotate(-13.28)"/>
<path class="cls-1" d="M199.65,346.43,177,310.22a22,22,0,0,0-30.32-7l-11,6.91a22,22,0,0,0-7,30.32l3.13,5H28.94a23.45,23.45,0,0,0-6.35.88l6.81,24-.08,0L22.5,346.38a23.46,23.46,0,0,0-17,22.47v14.3A23.38,23.38,0,0,0,28.85,406.5h66a20.55,20.55,0,0,0,20,17h81.32c11.22,0,20.34-9.43,20.34-21V368.85A23.38,23.38,0,0,0,199.65,346.43Zm-54.27-18.07a1.94,1.94,0,0,1,.87-1.25l11-6.9a2,2,0,0,1,1.5-.24,2,2,0,0,1,1.25.87l15.45,24.66H155.63l-10-15.63A1.93,1.93,0,0,1,145.38,328.36Zm46.12,52v18.1h-72V381.73h-13v-.23h-76v-11h161Z"/>
<path class="cls-1" d="M795,386.29a146.34,146.34,0,0,0-70-63.07,15,15,0,0,0-11.86,27.56c48.42,20.82,76.68,70.57,67.22,118.3-5.13,25.86-21.83,49.57-45.81,65A114.62,114.62,0,0,1,650,550.36c-1.85-28-14-60.3-36.48-96.63A488.49,488.49,0,0,0,567,390.91a79.82,79.82,0,0,0,14.8-46.3h0a79.67,79.67,0,0,0-11.31-40.95,47,47,0,0,0,25.87-42V238.13a47,47,0,0,0-47-47h-7c-10.61-40.14-47.34-70-90.7-70H430.32c3-22.85,21.16-40.48,43.06-40.48a11.17,11.17,0,0,0,9.44-5.22c4.42-.17,9.71-.29,15.78-.29a5.58,5.58,0,0,0,0-11.16c-5.43,0-10.66.09-15.36.26a11.17,11.17,0,0,0-9.86-5.92,64,64,0,0,0-47.23,21.14q-.86-5-1.89-9.41c-1.82-7.78-7.35-31.47-23.77-31.47a11.16,11.16,0,0,0-8.57,4c-2.68-.15-5.61-.23-8.63-.23a5.58,5.58,0,1,0,0,11.16c2.53,0,4.78.06,6.76.15a11.2,11.2,0,0,0,7.35,6.81c1.91,2.77,4.4,9.89,6.44,21a42.23,42.23,0,0,0-20.27-5.2,11.17,11.17,0,0,0-10.06,6.34c-7.4.89-14,2.73-17.42,5.92a8.53,8.53,0,0,0-2.91,6.07,5.58,5.58,0,0,0,5.41,5.74h.17a5.6,5.6,0,0,0,5.34-4c1.37-.87,4.88-2,10.26-2.66a11.18,11.18,0,0,0,9.21,4.86c11.34,0,20.86,9.64,23.34,22.54H383.65c-43.36,0-80.09,29.83-90.7,70H286.7a47,47,0,0,0-47,47v23.58A47,47,0,0,0,265,303.37a79.63,79.63,0,0,0-11.47,41.24h0A80.62,80.62,0,0,0,333.93,425H501.37a79.8,79.8,0,0,0,44-13.21,463.76,463.76,0,0,1,42.91,58.12c27.27,44.26,37.37,81.18,29.23,106.77-7.2,22.61-30,38.17-67.7,46.24-93.82,11.56-112.75-4.5-115.6-7.84-.12-.14-.23-.29-.33-.43,21.06-11.83,25.34-13.85,25.9-14.11a13.43,13.43,0,0,1-2.44.79l-6.57-29.28c-2.36.53-5.59,1.26-77.5,42.59a117.12,117.12,0,0,1-18.06,8.82c2.53-10,11.8-33.58,44.51-85.39,7.89-12.5,20-27.38,32.7-27.38h.09c12.65.08,24.43,14.72,27.89,20.36l12.81-7.8L486,515.5c-2.13-3.53-21.7-34.48-53.17-34.81h-.49c-17.18,0-33.27,9.15-48,27.24-7.93-10.23-24.78-27.51-48.25-27.75h-.49c-21.19,0-40.72,13.92-58.05,41.37-18,28.57-31.31,52.2-39.44,70.23-9,20.06-16.58,42.36-3.88,55.6,4.94,5.15,11.15,7.07,17.74,7.07,14.55,0,30.93-9.41,39.45-14.31,13.6-7.81,24.63-14.11,33.59-19.19-1.83,10.4-.78,19.94,5.94,26.94C336,653,342.16,655,348.75,655c14.55,0,30.93-9.41,39.45-14.31,7.21-4.14,13.7-7.86,19.54-11.19a36.32,36.32,0,0,0,2.15,3.24c12.21,16.29,39,24.37,81.22,24.37q27.2,0,63-4.46l.63-.08.62-.13c49.45-10.43,80-32.86,90.72-66.65q.82-2.64,1.48-5.34a147.38,147.38,0,0,0,24.78,2.12,144.1,144.1,0,0,0,78.4-23.2c30.77-19.85,52.26-50.62,59-84.41C815.55,445.48,810.31,414,795,386.29Zm-245.62-173a24.74,24.74,0,0,1,18.55,8.36c-4.1,4.16-7,15.47-7,28.78,0,12.76,2.7,23.68,6.55,28.23a24.9,24.9,0,0,1-11.55,6.94,81.34,81.34,0,0,0-10.4-8.15V215c0-.55,0-1.1,0-1.65h3.92Zm-5.21-13.92,0-.22Zm.42,2.73,0-.23ZM336.69,168a66.07,66.07,0,0,1,47-19.56h68a66.06,66.06,0,0,1,47,19.56A67.86,67.86,0,0,1,508,179.74,86.05,86.05,0,0,0,458.33,164H377.19a86.1,86.1,0,0,0-50,16A68.06,68.06,0,0,1,336.69,168Zm-19.56,69.63a61.79,61.79,0,0,1,60.06-48.45h81.14a61.82,61.82,0,0,1,59.85,47.49V266h0a79.71,79.71,0,0,0-16.81-1.8H477.62c4.55-6.18,7.38-14.77,7.38-24.28,0-18.8-11.05-34.05-24.68-34.05s-24.67,15.25-24.67,34.05c0,9.51,2.82,18.1,7.37,24.28h-55.4c4.55-6.18,7.38-14.77,7.38-24.28,0-18.8-11.05-34.05-24.68-34.05s-24.67,15.25-24.67,34.05c0,9.51,2.82,18.1,7.37,24.28H333.93a79.71,79.71,0,0,0-16.81,1.8h0Zm-26-38.23,0-.22Zm-.42,2.73,0-.23Zm-22.1,19a24.76,24.76,0,0,1,18.05-7.81h3.18c0,.55,0,1.1,0,1.65v62.51h0a81.5,81.5,0,0,0-10.23,8,24.83,24.83,0,0,1-11.48-7.33c4.1-4.16,7.05-15.48,7.05-28.79C275.2,236.61,272.49,225.69,268.65,221.14ZM501.37,397.28H333.93a52.67,52.67,0,0,1,0-105.34H501.37a52.67,52.67,0,0,1,0,105.34ZM276.53,614.13A117.61,117.61,0,0,1,258.46,623c2.54-10,11.81-33.58,44.52-85.39,7.89-12.5,20-27.38,32.7-27.38h.09c12.65.07,24.42,14.72,27.89,20.36l8.66-5.28c-12.39,19.77-22.44,37.1-30,51.76C332.47,582.28,313.65,592.79,276.53,614.13Z"/><path class="cls-1" d="M545.13,148l16.48,11.62a20.2,20.2,0,0,0,11.61,3.73c.56,0,1.12,0,1.69-.08a17.94,17.94,0,0,0,13.17-7.46l14.33-20.32,2.47,1.58L591,156.78a18.16,18.16,0,0,0,4.37,25.29L630.74,207A18.09,18.09,0,0,0,648,209a52.41,52.41,0,0,0,49.34,35.19,53.22,53.22,0,0,0,9-.78A52,52,0,0,0,740.19,222l.29-.42-.2-.14,24-34a20.51,20.51,0,0,0-4.93-28.53l-96.9-68.33a19.77,19.77,0,0,0-3.63-2l-2.89-1.94-32.08-21.3L610.25,55.7c-7.55-5.32-17.66-4.88-24.07,1.06h0a17.85,17.85,0,0,0-2.4,2.74l-43.95,62.33a18,18,0,0,0-2.61,14.91A20.13,20.13,0,0,0,545.13,148ZM659,118.71l82.26,58-21.84,31,.19.14a27.35,27.35,0,0,1-44.53-31.76l.08-.11-.21-.14.24-.33-20.43-14.41-15.19,21.54-24.15-17,15.19-21.54-.2-.15,21.23-30.11ZM603.18,75.09h0l-8.49-9.17Zm-2.79,4.24,11.91,8.4-.17-.12,0-.06L630.8,99.92l-11.7,16.6-17.39-11.07,0,0-5.8-4.09L571.47,136l-7.39-5.21Z"/>
</svg>