<svg id="605015a3-0fc8-4173-a59d-c4c54aeac38a" data-name="Layer 1" xmlns="http://www.w3.org/2000/svg" viewBox="0 0 356.6 386.4">
  <defs>
    <style>
      .\31 13b338c-1812-449a-a341-d63bb7db172e {
        fill: #F9C251;
      }
    </style>
  </defs>
  <title>robomonkey-mascot</title>
  <path class="113b338c-1812-449a-a341-d63bb7db172e" d="M282.4,258.9a52.7,52.7,0,0,1,0,105.4H114.9a52.7,52.7,0,0,1,0-105.4H282.4m0-27.7H114.9a80.7,80.7,0,0,0-80.4,80.4h0A80.7,80.7,0,0,0,114.9,392H282.4a80.7,80.7,0,0,0,80.4-80.4h0a80.7,80.7,0,0,0-80.4-80.4Z" transform="translate(-20.7 -5.6)"/>
  <g>
    <circle class="113b338c-1812-449a-a341-d63bb7db172e" cx="148.7" cy="284.8" r="18.2"/>
    <circle class="113b338c-1812-449a-a341-d63bb7db172e" cx="207.2" cy="284.8" r="18.2"/>
  </g>
  <g>
    <path class="113b338c-1812-449a-a341-d63bb7db172e" d="M199.7,106a11.2,11.2,0,0,1-11.2-11.2c0-16.1-10.7-29.2-23.9-29.2a11.2,11.2,0,1,1,0-22.3c25.5,0,46.3,23.1,46.3,51.5A11.2,11.2,0,0,1,199.7,106Z" transform="translate(-20.7 -5.6)"/>
    <path class="113b338c-1812-449a-a341-d63bb7db172e" d="M199.7,106a11.2,11.2,0,0,1-11.2-11.2c0-38.3,29.6-69.4,65.9-69.4a11.2,11.2,0,0,1,0,22.3c-24,0-43.5,21.1-43.5,47.1A11.2,11.2,0,0,1,199.7,106Z" transform="translate(-20.7 -5.6)"/>
    <path class="113b338c-1812-449a-a341-d63bb7db172e" d="M199.7,106a11.2,11.2,0,0,1-11.2-11.2c0-38.2-6.2-61.6-10.1-67.3a11.1,11.1,0,0,1-8.1-10.7A11.2,11.2,0,0,1,181.5,5.6c16.4,0,21.9,23.7,23.8,31.5,3.6,15.5,5.6,36,5.6,57.7A11.2,11.2,0,0,1,199.7,106Z" transform="translate(-20.7 -5.6)"/>
    <path class="113b338c-1812-449a-a341-d63bb7db172e" d="M139.8,67.4h-.2a5.6,5.6,0,0,1-5.4-5.8,8.3,8.3,0,0,1,2.9-6c6-5.6,21.6-7,34.3-6.5a5.5,5.5,0,0,1,5.3,5.8,5.6,5.6,0,0,1-5.8,5.3c-14.3-.5-23.4,1.7-25.8,3.2A5.6,5.6,0,0,1,139.8,67.4Z" transform="translate(-20.7 -5.6)"/>
    <path class="113b338c-1812-449a-a341-d63bb7db172e" d="M184,23a5.4,5.4,0,0,1-3.5-1.3,93.5,93.5,0,0,0-16.2-1.1,5.6,5.6,0,0,1,0-11.2,120.8,120.8,0,0,1,14.6.8c3.8.4,10.7,1.3,10.7,7.2A5.6,5.6,0,0,1,184,23Zm-5.6-5.6Zm0,0Zm0,0Z" transform="translate(-20.7 -5.6)"/>
    <path class="113b338c-1812-449a-a341-d63bb7db172e" d="M246.4,44.6a5.6,5.6,0,0,1-5.6-5.6c0-5.2,5.4-6.1,7.2-6.4l7.7-.9c6.4-.4,14.9-.7,23.9-.7a5.6,5.6,0,0,1,0,11.2c-16.3,0-27,.8-30.1,1.4A5.7,5.7,0,0,1,246.4,44.6Zm5.5-5.6Zm0,0Zm0,0Z" transform="translate(-20.7 -5.6)"/>
  </g>
  <ellipse class="113b338c-1812-449a-a341-d63bb7db172e" cx="130.6" cy="201.3" rx="24.7" ry="34.1"/>
  <ellipse class="113b338c-1812-449a-a341-d63bb7db172e" cx="220.6" cy="201.3" rx="24.7" ry="34.1"/>
  <path class="113b338c-1812-449a-a341-d63bb7db172e" d="M330.3,158.2h-6.9a95,95,0,0,1,3,22.1h3.9a25,25,0,0,1,18.6,8.4c-4.1,4.2-7.1,15.5-7.1,28.8s2.7,23.6,6.6,28.2a24.8,24.8,0,0,1-18.1,7.8h-3.9v22.2h3.9a47.1,47.1,0,0,0,47-47V205.1A47,47,0,0,0,330.3,158.2Z" transform="translate(-20.7 -5.6)"/>
  <path class="113b338c-1812-449a-a341-d63bb7db172e" d="M67.7,180.3h3.2a95,95,0,0,1,3-22.1H67.7a47,47,0,0,0-47,46.9v23.6a47.1,47.1,0,0,0,47,47h3.2V253.5H67.7a24.7,24.7,0,0,1-18.6-8.4c4.2-4.1,7.1-15.4,7.1-28.7s-2.7-23.7-6.5-28.3A24.6,24.6,0,0,1,67.7,180.3Z" transform="translate(-20.7 -5.6)"/>
  <path class="113b338c-1812-449a-a341-d63bb7db172e" d="M98.1,233V204.6a61.6,61.6,0,0,1,16.7-30.3,61,61,0,0,1,43.4-18.1h81.1a62,62,0,0,1,59.9,47.5V233a78.4,78.4,0,0,1,27.2,11.5V182c0-51.6-42.2-93.8-93.8-93.8H164.7c-51.6,0-93.8,42.2-93.8,93.8v62.5A79.2,79.2,0,0,1,98.1,233Zm19.6-98a66.1,66.1,0,0,1,47-19.6h67.9a66.1,66.1,0,0,1,47,19.6,74.2,74.2,0,0,1,9.4,11.7A86.1,86.1,0,0,0,239.3,131H158.2a85.6,85.6,0,0,0-50,16A63.5,63.5,0,0,1,117.7,135Z" transform="translate(-20.7 -5.6)"/>
</svg>
