<svg xmlns="http://www.w3.org/2000/svg" width="14" height="14" viewBox="0 0 14 14">
  <defs>
    <style>
      .cls-1 {
        fill: rgba(255,255,255,0);
      }

      .cls-2 {
        fill: none;
        stroke: #707070;
        stroke-linecap: round;
        stroke-width: 2px;
      }

      .cls-3, .cls-4 {
        stroke: none;
      }

      .cls-4 {
        fill: #707070;
      }
    </style>
  </defs>
  <g id="time" transform="translate(-363 -635)">
    <g id="Path_187" data-name="Path 187" class="cls-1" transform="translate(363 635)">
      <path class="cls-3" d="M 7 13 C 3.691590070724487 13 1 10.30840969085693 1 7 C 1 3.691590070724487 3.691590070724487 1 7 1 C 10.30840969085693 1 13 3.691590070724487 13 7 C 13 10.30840969085693 10.30840969085693 13 7 13 Z"/>
      <path class="cls-4" d="M 7 2 C 4.242989540100098 2 2 4.242989540100098 2 7 C 2 9.757009506225586 4.242989540100098 12 7 12 C 9.757009506225586 12 12 9.757009506225586 12 7 C 12 4.242989540100098 9.757009506225586 2 7 2 M 7 0 C 10.86598968505859 0 14 3.134010314941406 14 7 C 14 10.86598968505859 10.86598968505859 14 7 14 C 3.134010314941406 14 0 10.86598968505859 0 7 C 0 3.134010314941406 3.134010314941406 0 7 0 Z"/>
    </g>
    <line id="Line_19" data-name="Line 19" class="cls-2" y1="4" transform="translate(369.5 639.5)"/>
    <line id="Line_119" data-name="Line 119" class="cls-2" x2="2" transform="translate(369.5 643.5)"/>
  </g>
</svg>
