<svg xmlns="http://www.w3.org/2000/svg" xmlns:xlink="http://www.w3.org/1999/xlink" width="111.001" height="138" viewBox="0 0 111.001 138">
  <defs>
    <style>
      .cls-1, .cls-6 {
        fill: none;
      }

      .cls-2, .cls-8 {
        fill: #f1ecdd;
      }

      .cls-3, .cls-4 {
        fill: #f85959;
      }

      .cls-3 {
        font-size: 24px;
        font-family: ArialRoundedMTBold, Arial Rounded MT;
      }

      .cls-5 {
        clip-path: url(#clip-path);
      }

      .cls-6 {
        stroke: #d4cbb2;
        stroke-linecap: round;
      }

      .cls-7, .cls-8 {
        stroke: none;
      }

      .cls-9 {
        filter: url(#Path_265);
      }

      .cls-10 {
        filter: url(#Subtraction_4);
      }
    </style>
    <filter id="Rectangle_52" x="0.001" y="0" width="111" height="138" filterUnits="userSpaceOnUse">
      <feOffset dy="3" input="SourceAlpha"/>
      <feGaussianBlur stdDeviation="3" result="blur"/>
      <feFlood flood-opacity="0.161"/>
      <feComposite operator="in" in2="blur"/>
      <feComposite in="SourceGraphic"/>
    </filter>
    <filter id="Subtraction_4" x="0" y="0.001" width="111.001" height="137.999" filterUnits="userSpaceOnUse">
      <feOffset dy="3" input="SourceAlpha"/>
      <feGaussianBlur stdDeviation="3" result="blur-2"/>
      <feFlood flood-opacity="0.161"/>
      <feComposite operator="in" in2="blur-2"/>
      <feComposite in="SourceGraphic"/>
    </filter>
    <clipPath id="clip-path">
      <rect class="cls-1" width="74" height="62"/>
    </clipPath>
    <filter id="Path_265" x="65.001" y="0" width="46" height="45" filterUnits="userSpaceOnUse">
      <feOffset dy="3" input="SourceAlpha"/>
      <feGaussianBlur stdDeviation="3" result="blur-3"/>
      <feFlood flood-opacity="0.161"/>
      <feComposite operator="in" in2="blur-3"/>
      <feComposite in="SourceGraphic"/>
    </filter>
  </defs>
  <g id="Group_69" data-name="Group 69" transform="translate(-1030.999 -501)">
    <g class="cls-10" transform="matrix(1, 0, 0, 1, 1031, 501)">
      <path id="Subtraction_4-2" data-name="Subtraction 4" class="cls-2" d="M-6378-2173h-87a3,3,0,0,1-3-3v-114a3,3,0,0,1,3-3h57v28a4,4,0,0,0,4,4h29v85A3,3,0,0,1-6378-2173Z" transform="translate(6477 2299)"/>
    </g>
    <text id="A" class="cls-3" transform="translate(1050 535)"><tspan x="0" y="0">A</tspan></text>
    <g id="Union_2" data-name="Union 2" class="cls-4" transform="translate(2654 1892)">
      <path class="cls-7" d="M -1589.00048828125 -1365.500244140625 C -1589.827514648438 -1365.500244140625 -1590.500366210938 -1366.173095703125 -1590.500366210938 -1367.000122070313 L -1590.500366210938 -1368.499877929688 L -1592.000122070313 -1368.499877929688 C -1592.8271484375 -1368.499877929688 -1593.5 -1369.172729492188 -1593.5 -1369.999877929688 C -1593.5 -1370.826904296875 -1592.8271484375 -1371.499755859375 -1592.000122070313 -1371.499755859375 L -1590.500366210938 -1371.499755859375 L -1590.500366210938 -1373.00048828125 C -1590.500366210938 -1373.827514648438 -1589.827514648438 -1374.500366210938 -1589.00048828125 -1374.500366210938 C -1588.1728515625 -1374.500366210938 -1587.499633789063 -1373.827514648438 -1587.499633789063 -1373.00048828125 L -1587.499633789063 -1371.499755859375 L -1585.999877929688 -1371.499755859375 C -1585.172729492188 -1371.499755859375 -1584.499877929688 -1370.826904296875 -1584.499877929688 -1369.999877929688 C -1584.499877929688 -1369.172729492188 -1585.172729492188 -1368.499877929688 -1585.999877929688 -1368.499877929688 L -1587.499633789063 -1368.499877929688 L -1587.499633789063 -1367.000122070313 C -1587.499633789063 -1366.173095703125 -1588.1728515625 -1365.500244140625 -1589.00048828125 -1365.500244140625 Z"/>
      <path class="cls-8" d="M -1589.00048828125 -1366.000244140625 C -1588.447875976563 -1366.000244140625 -1587.999633789063 -1366.447509765625 -1587.999633789063 -1367.000122070313 L -1587.999633789063 -1368.999877929688 L -1585.999877929688 -1368.999877929688 C -1585.448120117188 -1368.999877929688 -1584.999877929688 -1369.448120117188 -1584.999877929688 -1369.999877929688 C -1584.999877929688 -1370.552490234375 -1585.448120117188 -1370.999755859375 -1585.999877929688 -1370.999755859375 L -1587.999633789063 -1370.999755859375 L -1587.999633789063 -1373.00048828125 C -1587.999633789063 -1373.552124023438 -1588.447875976563 -1374.000366210938 -1589.00048828125 -1374.000366210938 C -1589.552124023438 -1374.000366210938 -1590.000366210938 -1373.552124023438 -1590.000366210938 -1373.00048828125 L -1590.000366210938 -1370.999755859375 L -1592.000122070313 -1370.999755859375 C -1592.551879882813 -1370.999755859375 -1593 -1370.552490234375 -1593 -1369.999877929688 C -1593 -1369.448120117188 -1592.551879882813 -1368.999877929688 -1592.000122070313 -1368.999877929688 L -1590.000366210938 -1368.999877929688 L -1590.000366210938 -1367.000122070313 C -1590.000366210938 -1366.447509765625 -1589.552124023438 -1366.000244140625 -1589.00048828125 -1366.000244140625 M -1589.00048828125 -1365.000244140625 C -1590.103271484375 -1365.000244140625 -1591.000366210938 -1365.897338867188 -1591.000366210938 -1367.000122070313 L -1591.000366210938 -1367.999877929688 L -1592.000122070313 -1367.999877929688 C -1593.102905273438 -1367.999877929688 -1594 -1368.897094726563 -1594 -1369.999877929688 C -1594 -1371.102661132813 -1593.102905273438 -1371.999755859375 -1592.000122070313 -1371.999755859375 L -1591.000366210938 -1371.999755859375 L -1591.000366210938 -1373.00048828125 C -1591.000366210938 -1374.103271484375 -1590.103271484375 -1375.000366210938 -1589.00048828125 -1375.000366210938 C -1587.897216796875 -1375.000366210938 -1586.999633789063 -1374.103271484375 -1586.999633789063 -1373.00048828125 L -1586.999633789063 -1371.999755859375 L -1585.999877929688 -1371.999755859375 C -1584.897094726563 -1371.999755859375 -1583.999877929688 -1371.102661132813 -1583.999877929688 -1369.999877929688 C -1583.999877929688 -1368.897094726563 -1584.897094726563 -1367.999877929688 -1585.999877929688 -1367.999877929688 L -1586.999633789063 -1367.999877929688 L -1586.999633789063 -1367.000122070313 C -1586.999633789063 -1365.897338867188 -1587.897216796875 -1365.000244140625 -1589.00048828125 -1365.000244140625 Z"/>
    </g>
    <g id="Repeat_Grid_8" data-name="Repeat Grid 8" class="cls-5" transform="translate(1051 551)">
      <g transform="translate(-1111 -525)">
        <line id="Line_24" data-name="Line 24" class="cls-6" x2="73" transform="translate(1111.5 525.5)"/>
      </g>
      <g transform="translate(-1111 -514)">
        <line id="Line_24-2" data-name="Line 24" class="cls-6" x2="73" transform="translate(1111.5 525.5)"/>
      </g>
      <g transform="translate(-1111 -503)">
        <line id="Line_24-3" data-name="Line 24" class="cls-6" x2="73" transform="translate(1111.5 525.5)"/>
      </g>
      <g transform="translate(-1111 -492)">
        <line id="Line_24-4" data-name="Line 24" class="cls-6" x2="73" transform="translate(1111.5 525.5)"/>
      </g>
      <g transform="translate(-1111 -481)">
        <line id="Line_24-5" data-name="Line 24" class="cls-6" x2="73" transform="translate(1111.5 525.5)"/>
      </g>
      <g transform="translate(-1111 -470)">
        <line id="Line_24-6" data-name="Line 24" class="cls-6" x2="73" transform="translate(1111.5 525.5)"/>
      </g>
    </g>
    <g class="cls-9" transform="matrix(1, 0, 0, 1, 1031, 501)">
      <path id="Path_265-2" data-name="Path 265" class="cls-2" d="M0,0H1A27,27,0,0,1,28,27H0Z" transform="translate(74 6)"/>
    </g>
  </g>
</svg>
