<svg id="_605015a3-0fc8-4173-a59d-c4c54aeac38a" data-name="605015a3-0fc8-4173-a59d-c4c54aeac38a" xmlns="http://www.w3.org/2000/svg" viewBox="0 0 356.6 386.4">
<defs>
    <style>
      .\31 13b338c-1812-449a-a341-d63bb7db172e {
        fill: #F9C251;
      }
    </style>
</defs>
<circle class="113b338c-1812-449a-a341-d63bb7db172e" cx="71.42" cy="110.2" r="6.43"/>
<circle class="113b338c-1812-449a-a341-d63bb7db172e" cx="86.3" cy="124.55" r="6.43"/>
<path class="113b338c-1812-449a-a341-d63bb7db172e" d="M144.79,116.06l-1.75-1.7a33.62,33.62,0,0,1-2.71,4,33.26,33.26,0,0,0-3.22-44.13l-5.42-5.23c6.38-5.09,15.31-5.1,20.88.28a4,4,0,0,0,3.41.74c1.22,1.09,2.69,2.44,4.35,4.05a2,2,0,0,0,2.75-2.85h0c-1.48-1.43-2.93-2.76-4.24-3.94a3.94,3.94,0,0,0-.8-3.67,22.66,22.66,0,0,0-17.19-6.23c.67-1,1.27-1.91,1.84-2.84,1.43-2.45,5.84-9.83,1.67-13.86a3.93,3.93,0,0,0-3.17-1c-.69-.75-1.39-1.49-2.12-2.19a2,2,0,0,0-2.75,2.85h0c.57.55,1.14,1.1,1.68,1.69a3.87,3.87,0,0,0,.21,3.52c-.19,1.19-1.32,3.61-3.52,6.91a15.05,15.05,0,0,0-3.87-6.29,5.29,5.29,0,0,0-.54-.52,4,4,0,0,0-3.92-.57c-2-1.46-4-2.5-5.56-2.53a2.92,2.92,0,0,0-2.21.82h0a2,2,0,0,0,0,2.8l0,0a2,2,0,0,0,2.36.27,9.89,9.89,0,0,1,3,1.67,3.92,3.92,0,0,0,1.43,3.67c2.89,2.79,2.92,7.57.37,11.46l-5.9-5.69A33.25,33.25,0,0,0,75.61,56a32.41,32.41,0,0,1,3.94-2.86L78,51.62A16.6,16.6,0,0,0,54.53,52l-5.79,6A16.65,16.65,0,0,0,45,74.81,28.36,28.36,0,0,0,32.6,122.7l42.61,41.1a28.37,28.37,0,0,0,47.34-13.93,16.64,16.64,0,0,0,16.86-4.32l5.83-6A16.6,16.6,0,0,0,144.79,116.06Zm-5.42,5.62a8.83,8.83,0,0,1,2.65,6.73c-2.09.07-5.61,2.2-8.87,5.58s-5.11,6.67-5.24,8.79a8.77,8.77,0,0,1-4.65-1.08,27.75,27.75,0,0,0-.65-4.63L138,121.16c.31-.32.62-.64.9-1a4.61,4.61,0,0,0-.5.56Zm-.09-2a10.2,10.2,0,0,0,.79-1c-.27.32-.55.62-.8.94ZM96.4,58a23.36,23.36,0,0,1,16.77,6.53l17.27,16.65a23.38,23.38,0,0,1,7.15,16.52,26,26,0,0,1-.48,5.29,30.45,30.45,0,0,0-8.79-16.19l-20.64-19.9A30.13,30.13,0,0,0,91,58.7,22,22,0,0,1,96.39,58ZM74.34,70.89a21.91,21.91,0,0,1,27.16,2.43l20.63,19.9A21.89,21.89,0,0,1,125.72,120l-7.19,7.46a27.34,27.34,0,0,1,3,5.92,28.4,28.4,0,0,0-6.86-10.5L108.63,117a14.61,14.61,0,0,0,7.85-4.38c4.62-4.78,5.54-11.37,2.07-14.72s-10-2.18-14.64,2.61a14.54,14.54,0,0,0-4.1,8L85.73,94.93a14.63,14.63,0,0,0,7.86-4.35c4.61-4.79,5.54-11.38,2.07-14.73s-10-2.18-14.64,2.6a14.61,14.61,0,0,0-4.09,8l-4.87-4.7a28.58,28.58,0,0,0-9.47-6,26.72,26.72,0,0,1,4.73,2.35Zm47.6,63.67-.08-.24ZM66.06,54.84a8.69,8.69,0,0,1,6.49,2.44l.82.78.52-.54-.92,1L57.65,74.36a29.29,29.29,0,0,0-4.58-.49,8.74,8.74,0,0,1-1.13-4.7c2.09,0,5.58-2.17,8.85-5.55s5.14-6.69,5.28-8.81Zm9.22,1.47c-.31.26-.62.53-.92.81a10.51,10.51,0,0,1,.93-.85ZM61.45,75.37ZM82,156.76,39.4,115.64A18.63,18.63,0,0,1,65.26,88.83l42.62,41.1A18.63,18.63,0,0,1,82,156.74Z"/>
<circle class="113b338c-1812-449a-a341-d63bb7db172e" cx="272" cy="314.79" r="6.43"/>
<circle class="113b338c-1812-449a-a341-d63bb7db172e" cx="286.77" cy="300.32" r="6.43"/>
<path class="113b338c-1812-449a-a341-d63bb7db172e" d="M279.93,241.61l-1.74,1.7a34.47,34.47,0,0,1,4,2.83,33.26,33.26,0,0,0-44.21,2l-5.37,5.27c-4.91-6.51-4.67-15.44.87-20.86a4,4,0,0,0,.83-3.38c1.12-1.2,2.51-2.62,4.17-4.24a2,2,0,0,0-2.77-2.83h0c-1.47,1.44-2.84,2.85-4.05,4.13a4,4,0,0,0-3.7.69,22.68,22.68,0,0,0-6.71,17c-.95-.69-1.88-1.32-2.79-1.91-2.41-1.5-9.66-6.12-13.8-2.06a3.86,3.86,0,0,0-1.13,3.14c-.78.66-1.53,1.34-2.26,2.06a2,2,0,0,0,2.77,2.82h0c.57-.56,1.14-1.11,1.74-1.63a3.89,3.89,0,0,0,3.53-.11c1.18.23,3.57,1.42,6.8,3.72a14.87,14.87,0,0,0-6.39,3.69,4.49,4.49,0,0,0-.54.53,4,4,0,0,0-.67,3.89c-1.52,2-2.62,3.92-2.69,5.49a2.89,2.89,0,0,0,.75,2.23h0a2,2,0,0,0,2.8.13l0,0a2,2,0,0,0,.34-2.35,10,10,0,0,1,1.75-2.94,3.91,3.91,0,0,0,3.71-1.33c2.87-2.8,7.65-2.7,11.47,0l-5.86,5.74a33.24,33.24,0,0,0-2.86,44.15,32.1,32.1,0,0,1-2.75-4l-1.57,1.53a16.62,16.62,0,0,0-.28,23.45l5.84,6a16.63,16.63,0,0,0,16.69,4.25A28.38,28.38,0,0,0,283.39,354l42.29-41.44A28.37,28.37,0,0,0,313.1,264.8a16.65,16.65,0,0,0-3.84-17l-5.87-6A16.62,16.62,0,0,0,279.93,241.61Zm5.47,5.58a8.8,8.8,0,0,1,6.8-2.46c0,2.09,2,5.67,5.33,9s6.52,5.29,8.64,5.49a8.79,8.79,0,0,1-1.21,4.61,27.92,27.92,0,0,0-4.65.51l-15.47-15.79a11.88,11.88,0,0,0-1-.92,5.68,5.68,0,0,0,.56.51Zm-2,0c-.29-.29-.61-.55-.92-.81.31.27.59.56.91.82Zm-62.89,41.11a23.39,23.39,0,0,1,7-16.57L244.65,255a23.4,23.4,0,0,1,16.72-6.68,26,26,0,0,1,5.27.63,30.37,30.37,0,0,0-16.43,8.33l-20.48,20.06a30.19,30.19,0,0,0-8.66,16.4,22.5,22.5,0,0,1-.56-5.36Zm12.26,22.42A21.85,21.85,0,0,1,229.51,299a21.56,21.56,0,0,1,6.48-15.3l20.47-20.06a21.91,21.91,0,0,1,26.87-2.83l7.25,7.4a27.35,27.35,0,0,1,6-2.85,28.4,28.4,0,0,0-10.69,6.55l-6,5.9a14.58,14.58,0,0,0-4.15-8c-4.66-4.76-11.22-5.87-14.66-2.5s-2.46,10,2.19,14.71a14.6,14.6,0,0,0,7.86,4.33l-14,13.69a14.58,14.58,0,0,0-4.13-8c-4.65-4.75-11.22-5.86-14.66-2.48s-2.46,10,2.19,14.7a14.52,14.52,0,0,0,7.88,4.31l-4.84,4.74a28.47,28.47,0,0,0-6.26,9.29A28.11,28.11,0,0,1,239.8,318Zm65-45.77-.24.07Zm-81.27,53.59a8.71,8.71,0,0,1,2.62-6.41l.81-.8-.53-.54.93.95,15.45,15.77a27.94,27.94,0,0,0-.62,4.56,8.73,8.73,0,0,1-4.73,1c.06-2.09-2-5.65-5.31-9s-6.53-5.33-8.65-5.52Zm1.73-9.17c.25.32.52.63.78.94a12.12,12.12,0,0,1-.82-.95Zm18.66,14.36Zm81.94-18.27-42.31,41.45a18.63,18.63,0,0,1-26.07-26.6l42.29-41.44a18.63,18.63,0,0,1,26.07,26.61Z"/>
</svg>