<svg xmlns="http://www.w3.org/2000/svg" width="18" height="18" viewBox="0 0 18 18">
  <defs>
    <style>
      .cls-1 {
        fill: #48e3a0;
      }

      .cls-2, .cls-3 {
        stroke: none;
      }

      .cls-3 {
        fill: #2e4052;
      }
    </style>
  </defs>
  <g id="Union_4" data-name="Union 4" class="cls-1" transform="translate(1595 66)">
    <path class="cls-2" d="M -1586.00048828125 -49.00054931640625 C -1587.37841796875 -49.00054931640625 -1588.49951171875 -50.12163925170898 -1588.49951171875 -51.49963760375977 L -1588.49951171875 -54.50011825561523 L -1591.5 -54.50011825561523 C -1592.878784179688 -54.50011825561523 -1594.00048828125 -55.62174606323242 -1594.00048828125 -57.00042724609375 C -1594.00048828125 -58.3784294128418 -1592.878784179688 -59.49950790405273 -1591.5 -59.49950790405273 L -1588.49951171875 -59.49950790405273 L -1588.49951171875 -62.49999618530273 C -1588.49951171875 -63.87870788574219 -1587.37841796875 -65.0003662109375 -1586.00048828125 -65.0003662109375 C -1584.621704101563 -65.0003662109375 -1583.5 -63.87870788574219 -1583.5 -62.49999618530273 L -1583.5 -59.49950790405273 L -1580.49951171875 -59.49950790405273 C -1579.12158203125 -59.49950790405273 -1578.00048828125 -58.3784294128418 -1578.00048828125 -57.00042724609375 C -1578.00048828125 -55.62174606323242 -1579.12158203125 -54.50011825561523 -1580.49951171875 -54.50011825561523 L -1583.5 -54.50011825561523 L -1583.5 -51.49963760375977 C -1583.5 -50.12163925170898 -1584.621704101563 -49.00054931640625 -1586.00048828125 -49.00054931640625 Z"/>
    <path class="cls-3" d="M -1586.00048828125 -50.00054931640625 C -1585.171875 -50.00054931640625 -1584.5 -50.67126846313477 -1584.5 -51.49963760375977 L -1584.5 -55.50011825561523 L -1580.49951171875 -55.50011825561523 C -1579.67138671875 -55.50011825561523 -1579.00048828125 -56.17205810546875 -1579.00048828125 -57.00042724609375 C -1579.00048828125 -57.828857421875 -1579.67138671875 -58.49950790405273 -1580.49951171875 -58.49950790405273 L -1584.5 -58.49950790405273 L -1584.5 -62.49999618530273 C -1584.5 -63.328369140625 -1585.171875 -64.0003662109375 -1586.00048828125 -64.0003662109375 C -1586.82861328125 -64.0003662109375 -1587.49951171875 -63.328369140625 -1587.49951171875 -62.49999618530273 L -1587.49951171875 -58.49950790405273 L -1591.5 -58.49950790405273 C -1592.328125 -58.49950790405273 -1593.00048828125 -57.828857421875 -1593.00048828125 -57.00042724609375 C -1593.00048828125 -56.17205810546875 -1592.328125 -55.50011825561523 -1591.5 -55.50011825561523 L -1587.49951171875 -55.50011825561523 L -1587.49951171875 -51.49963760375977 C -1587.49951171875 -50.67126846313477 -1586.82861328125 -50.00054931640625 -1586.00048828125 -50.00054931640625 M -1586.00048828125 -48.00054931640625 C -1587.929809570313 -48.00054931640625 -1589.49951171875 -49.57023620605469 -1589.49951171875 -51.49963760375977 L -1589.49951171875 -53.50011825561523 L -1591.5 -53.50011825561523 C -1593.43017578125 -53.50011825561523 -1595.00048828125 -55.07034683227539 -1595.00048828125 -57.00042724609375 C -1595.00048828125 -58.92982864379883 -1593.43017578125 -60.49950790405273 -1591.5 -60.49950790405273 L -1589.49951171875 -60.49950790405273 L -1589.49951171875 -62.49999618530273 C -1589.49951171875 -64.43010711669922 -1587.929809570313 -66.0003662109375 -1586.00048828125 -66.0003662109375 C -1584.0703125 -66.0003662109375 -1582.5 -64.43010711669922 -1582.5 -62.49999618530273 L -1582.5 -60.49950790405273 L -1580.49951171875 -60.49950790405273 C -1578.570190429688 -60.49950790405273 -1577.00048828125 -58.92982864379883 -1577.00048828125 -57.00042724609375 C -1577.00048828125 -55.07034683227539 -1578.570190429688 -53.50011825561523 -1580.49951171875 -53.50011825561523 L -1582.5 -53.50011825561523 L -1582.5 -51.49963760375977 C -1582.5 -49.57023620605469 -1584.0703125 -48.00054931640625 -1586.00048828125 -48.00054931640625 Z"/>
  </g>
</svg>
