<svg xmlns="http://www.w3.org/2000/svg" width="18.001" height="18" viewBox="0 0 18.001 18">
  <defs>
    <style>
      .cls-1 {
        fill: #fff;
      }
    </style>
  </defs>
  <path id="Union_8" data-name="Union 8" class="cls-1" d="M-2233.44-1544.893l2.415-2.416a1.49,1.49,0,0,0,.44-1.06,1.488,1.488,0,0,0-.44-1.06,1.489,1.489,0,0,0-1.06-.44,1.492,1.492,0,0,0-1.061.44l-2.415,2.415a4.455,4.455,0,0,1-.439-1.939,4.5,4.5,0,0,1,4.5-4.5,4.474,4.474,0,0,1,2.265.613l2.848-2.848a4.471,4.471,0,0,1-.613-2.265,4.505,4.505,0,0,1,4.5-4.5,4.465,4.465,0,0,1,1.94.438l-2.415,2.415a1.49,1.49,0,0,0-.44,1.06,1.492,1.492,0,0,0,.44,1.061,1.491,1.491,0,0,0,1.06.439,1.492,1.492,0,0,0,1.061-.439l2.415-2.415a4.453,4.453,0,0,1,.439,1.94,4.505,4.505,0,0,1-4.5,4.5,4.479,4.479,0,0,1-1.59-.29l-3.2,3.2a4.478,4.478,0,0,1,.29,1.589,4.505,4.505,0,0,1-4.5,4.5A4.452,4.452,0,0,1-2233.44-1544.893Z" transform="translate(2236 1562.454)"/>
</svg>
