<svg xmlns="http://www.w3.org/2000/svg" width="19" height="23" viewBox="0 0 19 23">
  <defs>
    <style>
      .trash-cls-1, .trash-cls-4 {
        fill: none;
      }

      .trash-cls-1 {
        stroke: #707070;
        stroke-width: 2px;
      }

      .trash-cls-2 {
        fill: #707070;
      }

      .trash-cls-3 {
        stroke: none;
      }
    </style>
  </defs>
  <g id="Group_184" data-name="Group 184" transform="translate(-1535 -721)">
    <g id="Rectangle_162" data-name="Rectangle 162" class="trash-cls-1" transform="translate(1537 728)">
      <path class="trash-cls-3" d="M0,0H15a0,0,0,0,1,0,0V12a4,4,0,0,1-4,4H4a4,4,0,0,1-4-4V0A0,0,0,0,1,0,0Z"/>
      <path class="trash-cls-4" d="M2,1H13a1,1,0,0,1,1,1V12a3,3,0,0,1-3,3H4a3,3,0,0,1-3-3V2A1,1,0,0,1,2,1Z"/>
    </g>
    <g id="Rectangle_163" data-name="Rectangle 163" class="trash-cls-1" transform="translate(1535 724)">
      <rect class="trash-cls-3" width="19" height="6" rx="3"/>
      <rect class="trash-cls-4" x="1" y="1" width="17" height="4" rx="2"/>
    </g>
    <g id="Rectangle_164" data-name="Rectangle 164" class="trash-cls-1" transform="translate(1540 721)">
      <path class="trash-cls-3" d="M3,0H6A3,3,0,0,1,9,3V5A0,0,0,0,1,9,5H0A0,0,0,0,1,0,5V3A3,3,0,0,1,3,0Z"/>
      <path class="trash-cls-4" d="M3,1H6A2,2,0,0,1,8,3V3A1,1,0,0,1,7,4H2A1,1,0,0,1,1,3V3A2,2,0,0,1,3,1Z"/>
    </g>
    <rect id="Rectangle_165" data-name="Rectangle 165" class="trash-cls-2" width="2" height="10" rx="1" transform="translate(1541 731)"/>
    <rect id="Rectangle_166" data-name="Rectangle 166" class="trash-cls-2" width="2" height="10" rx="1" transform="translate(1546 731)"/>
  </g>
</svg>
