<svg xmlns="http://www.w3.org/2000/svg" xmlns:xlink="http://www.w3.org/1999/xlink" width="130" height="141" viewBox="0 0 130 141">
  <defs>
    <style>
      .cls-1, .cls-2 {
        fill: #dbdbdb;
      }

      .cls-2, .cls-3 {
        stroke: #fbfbfb;
        stroke-width: 2px;
      }

      .cls-3, .cls-4 {
        fill: #64a1d6;
      }

      .cls-5 {
        stroke: none;
      }

      .cls-6 {
        fill: none;
      }

      .cls-7 {
        filter: url(#Rectangle_102);
      }

      .cls-8 {
        filter: url(#Rectangle_101);
      }

      .cls-9 {
        filter: url(#Rectangle_91);
      }
    </style>
    <filter id="Rectangle_91" x="22" y="14" width="108" height="113" filterUnits="userSpaceOnUse">
      <feOffset dy="3" input="SourceAlpha"/>
      <feGaussianBlur stdDeviation="3" result="blur"/>
      <feFlood flood-opacity="0.161"/>
      <feComposite operator="in" in2="blur"/>
      <feComposite in="SourceGraphic"/>
    </filter>
    <filter id="Rectangle_101" x="22" y="0" width="108" height="26" filterUnits="userSpaceOnUse">
      <feOffset dy="3" input="SourceAlpha"/>
      <feGaussianBlur stdDeviation="3" result="blur-2"/>
      <feFlood flood-opacity="0.161"/>
      <feComposite operator="in" in2="blur-2"/>
      <feComposite in="SourceGraphic"/>
    </filter>
    <filter id="Rectangle_102" x="22" y="115" width="108" height="26" filterUnits="userSpaceOnUse">
      <feOffset dy="3" input="SourceAlpha"/>
      <feGaussianBlur stdDeviation="3" result="blur-3"/>
      <feFlood flood-opacity="0.161"/>
      <feComposite operator="in" in2="blur-3"/>
      <feComposite in="SourceGraphic"/>
    </filter>
  </defs>
  <g id="Group_81" data-name="Group 81" transform="translate(-977 -690)">
    <rect id="Rectangle_90" data-name="Rectangle 90" class="cls-1" width="6" height="121" rx="3" transform="translate(985 696)"/>
    <g id="Ellipse_36" data-name="Ellipse 36" class="cls-2" transform="translate(979 702)">
      <ellipse class="cls-5" cx="8.5" cy="8" rx="8.5" ry="8"/>
      <ellipse class="cls-6" cx="8.5" cy="8" rx="9.5" ry="9"/>
    </g>
    <g id="Ellipse_37" data-name="Ellipse 37" class="cls-3" transform="translate(979 746)">
      <ellipse class="cls-5" cx="8.5" cy="8" rx="8.5" ry="8"/>
      <ellipse class="cls-6" cx="8.5" cy="8" rx="9.5" ry="9"/>
    </g>
    <g id="Ellipse_38" data-name="Ellipse 38" class="cls-2" transform="translate(979 794)">
      <ellipse class="cls-5" cx="8.5" cy="8" rx="8.5" ry="8"/>
      <ellipse class="cls-6" cx="8.5" cy="8" rx="9.5" ry="9"/>
    </g>
    <g class="cls-9" transform="matrix(1, 0, 0, 1, 977, 690)">
      <rect id="Rectangle_91-2" data-name="Rectangle 91" class="cls-4" width="90" height="95" rx="8" transform="translate(31 20)"/>
    </g>
    <g class="cls-8" transform="matrix(1, 0, 0, 1, 977, 690)">
      <path id="Rectangle_101-2" data-name="Rectangle 101" class="cls-1" d="M0,0H90a0,0,0,0,1,0,0V0a8,8,0,0,1-8,8H8A8,8,0,0,1,0,0V0A0,0,0,0,1,0,0Z" transform="translate(31 6)"/>
    </g>
    <g class="cls-7" transform="matrix(1, 0, 0, 1, 977, 690)">
      <path id="Rectangle_102-2" data-name="Rectangle 102" class="cls-1" d="M8,0H82a8,8,0,0,1,8,8V8a0,0,0,0,1,0,0H0A0,0,0,0,1,0,8V8A8,8,0,0,1,8,0Z" transform="translate(31 121)"/>
    </g>
  </g>
</svg>
