<svg xmlns="http://www.w3.org/2000/svg" width="110" height="110" viewBox="0 0 127.675 130">
  <defs>
    <style>
      .questions-cls-1, .questions-cls-6 {
        fill: none;
      }

      .questions-cls-1 {
        stroke: #efb43c;
        stroke-width: 10px;
      }

      .questions-cls-2, .questions-cls-3 {
        fill: #efb43c;
      }

      .questions-cls-2 {
        font-size: 73px;
        font-family: ArialRoundedMTBold, Arial Rounded MT;
      }

      .questions-cls-3 {
        font-size: 12px;
        font-family: Montserrat-Bold, Montserrat;
        font-weight: 700;
        letter-spacing: 0.1em;
      }

      .questions-cls-4 {
        fill: #3cef4800;
      }

      .questions-cls-5, .questions-cls-7 {
        stroke: none;
      }

      .questions-cls-7 {
        fill: #ffc85700;
      }
    </style>
  </defs>
  <g id="Group_75" data-name="Group 75" transform="translate(-972 -114)">
    <g id="Ellipse_64" data-name="Ellipse 64" class="questions-cls-1" transform="translate(972 114)">
      <ellipse class="questions-cls-5" cx="54.5" cy="55" rx="54.5" ry="55"/>
      <ellipse class="questions-cls-6" cx="54.5" cy="55" rx="49.5" ry="50"/>
    </g>
    <text id="_" data-name="?" class="questions-cls-2" transform="translate(1006 196)"><tspan x="0" y="0">?</tspan></text>
    <text id="QUESTIONS" class="questions-cls-3" transform="translate(984 241)"><tspan x="0" y="0">QUESTIONS</tspan></text>
    <g id="Union_13" data-name="Union 13" class="questions-cls-4" transform="translate(9765.064 2314.044)">
      <path class="questions-cls-5" d="M -8702.958984375 -2095.43896484375 C -8702.9970703125 -2095.43896484375 -8703.0341796875 -2095.439453125 -8703.072265625 -2095.440185546875 C -8703.1044921875 -2095.439697265625 -8703.13671875 -2095.439453125 -8703.169921875 -2095.439453125 C -8705.173828125 -2095.439453125 -8707.0576171875 -2096.21923828125 -8708.47265625 -2097.635498046875 C -8708.828125 -2097.98876953125 -8709.1474609375 -2098.38037109375 -8709.42578125 -2098.80029296875 L -8724.521484375 -2113.895263671875 C -8725.94140625 -2115.31494140625 -8726.72265625 -2117.20068359375 -8726.7216796875 -2119.20556640625 C -8726.720703125 -2121.2080078125 -8725.9384765625 -2123.090087890625 -8724.51953125 -2124.50537109375 C -8723.10546875 -2125.91943359375 -8721.22265625 -2126.69921875 -8719.2197265625 -2126.69921875 C -8717.216796875 -2126.69921875 -8715.333984375 -2125.91943359375 -8713.91796875 -2124.503662109375 L -8703.064453125 -2113.652099609375 L -8680.189453125 -2136.525634765625 C -8678.7705078125 -2137.942138671875 -8676.8876953125 -2138.721435546875 -8674.884765625 -2138.721435546875 C -8672.8818359375 -2138.721435546875 -8670.9990234375 -2137.94189453125 -8669.58203125 -2136.526123046875 C -8666.6572265625 -2133.601318359375 -8666.6572265625 -2128.8427734375 -8669.58203125 -2125.91796875 L -8696.701171875 -2098.798095703125 C -8696.9794921875 -2098.380615234375 -8697.2978515625 -2097.990966796875 -8697.650390625 -2097.637451171875 L -8697.65234375 -2097.635498046875 L -8697.6533203125 -2097.633544921875 C -8699.072265625 -2096.21826171875 -8700.9560546875 -2095.43896484375 -8702.958984375 -2095.43896484375 Z"/>
      <path class="questions-cls-7" d="M -8702.958984375 -2097.43896484375 C -8701.55078125 -2097.43896484375 -8700.142578125 -2097.9755859375 -8699.06640625 -2099.04931640625 C -8698.755859375 -2099.36083984375 -8698.490234375 -2099.70068359375 -8698.267578125 -2100.060546875 L -8670.99609375 -2127.33203125 C -8668.849609375 -2129.47900390625 -8668.849609375 -2132.96484375 -8670.99609375 -2135.111328125 C -8672.0703125 -2136.184814453125 -8673.4775390625 -2136.7216796875 -8674.884765625 -2136.7216796875 C -8676.2919921875 -2136.7216796875 -8677.7001953125 -2136.184814453125 -8678.775390625 -2135.111328125 L -8703.064453125 -2110.82373046875 L -8715.33203125 -2123.08935546875 C -8716.4052734375 -2124.16259765625 -8717.8125 -2124.69921875 -8719.2197265625 -2124.69921875 C -8720.626953125 -2124.69921875 -8722.0341796875 -2124.16259765625 -8723.107421875 -2123.08935546875 C -8725.259765625 -2120.9423828125 -8725.259765625 -2117.46142578125 -8723.107421875 -2115.3095703125 L -8707.857421875 -2100.060546875 C -8707.63671875 -2099.70068359375 -8707.37109375 -2099.36083984375 -8707.05859375 -2099.04931640625 C -8705.9853515625 -2097.975830078125 -8704.578125 -2097.439453125 -8703.169921875 -2097.439453125 C -8703.134765625 -2097.439453125 -8703.099609375 -2097.439697265625 -8703.064453125 -2097.4404296875 C -8703.029296875 -2097.439453125 -8702.994140625 -2097.43896484375 -8702.958984375 -2097.43896484375 M -8702.958984375 -2093.43896484375 C -8702.9990234375 -2093.43896484375 -8703.0380859375 -2093.439208984375 -8703.078125 -2093.43994140625 C -8703.1083984375 -2093.439697265625 -8703.138671875 -2093.439453125 -8703.16796875 -2093.439453125 C -8705.7080078125 -2093.439453125 -8708.0947265625 -2094.427490234375 -8709.8876953125 -2096.221435546875 C -8710.287109375 -2096.620849609375 -8710.6513671875 -2097.055908203125 -8710.9736328125 -2097.52001953125 L -8725.935546875 -2112.48095703125 C -8727.7333984375 -2114.278564453125 -8728.72265625 -2116.667236328125 -8728.7216796875 -2119.206787109375 C -8728.720703125 -2121.743896484375 -8727.7294921875 -2124.12841796875 -8725.9326171875 -2125.92138671875 C -8724.142578125 -2127.71142578125 -8721.7568359375 -2128.69921875 -8719.2197265625 -2128.69921875 C -8716.6826171875 -2128.69921875 -8714.296875 -2127.71142578125 -8712.50390625 -2125.917724609375 L -8703.064453125 -2116.480224609375 L -8681.603515625 -2137.93994140625 C -8679.806640625 -2139.734375 -8677.4208984375 -2140.7216796875 -8674.884765625 -2140.7216796875 C -8672.3486328125 -2140.7216796875 -8669.962890625 -2139.73388671875 -8668.1689453125 -2137.940673828125 C -8664.4638671875 -2134.23583984375 -8664.4638671875 -2128.20849609375 -8668.1669921875 -2124.50390625 L -8695.154296875 -2097.5166015625 C -8695.4765625 -2097.05517578125 -8695.837890625 -2096.622314453125 -8696.2333984375 -2096.225341796875 L -8696.2373046875 -2096.221435546875 L -8696.2412109375 -2096.2177734375 C -8698.037109375 -2094.42578125 -8700.4228515625 -2093.43896484375 -8702.958984375 -2093.43896484375 Z"/>
    </g>
  </g>
</svg>
